<svg width="1240" height="120" viewBox="0 0 1240 120" fill="none" xmlns="http://www.w3.org/2000/svg">
<path d="M22.1417 51.288C20.7337 51.288 19.5297 51.028 18.5297 50.508C17.5377 49.98 16.7777 49.216 16.2497 48.216C15.7297 47.216 15.4697 46.008 15.4697 44.592V34.2H18.5777V44.592C18.5777 45.864 18.8617 46.8 19.4297 47.4C19.9977 48 20.9017 48.3 22.1417 48.3C22.9257 48.3 23.5817 48.176 24.1097 47.928C24.6377 47.68 25.0337 47.284 25.2977 46.74C25.5617 46.188 25.6937 45.472 25.6937 44.592V34.2H28.8137V44.592C28.8137 45.776 28.6377 46.792 28.2857 47.64C27.9417 48.488 27.4617 49.184 26.8457 49.728C26.2377 50.264 25.5297 50.66 24.7217 50.916C23.9137 51.164 23.0537 51.288 22.1417 51.288ZM32.5556 55.872V38.736H35.5556V39.636C36.2276 38.844 37.1276 38.448 38.2556 38.448C39.3036 38.448 40.2076 38.708 40.9676 39.228C41.7276 39.74 42.3116 40.476 42.7196 41.436C43.1276 42.396 43.3316 43.54 43.3316 44.868C43.3316 46.156 43.1196 47.284 42.6956 48.252C42.2716 49.212 41.6756 49.96 40.9076 50.496C40.1396 51.024 39.2436 51.288 38.2196 51.288C37.6596 51.288 37.1556 51.188 36.7076 50.988C36.2596 50.78 35.8756 50.476 35.5556 50.076V54.516L32.5556 55.872ZM37.7756 48.42C38.5916 48.42 39.2196 48.112 39.6596 47.496C40.0996 46.872 40.3196 45.996 40.3196 44.868C40.3196 43.74 40.0956 42.864 39.6476 42.24C39.1996 41.616 38.5756 41.304 37.7756 41.304C37.2876 41.304 36.8596 41.392 36.4916 41.568C36.1316 41.744 35.8196 42.012 35.5556 42.372V47.328C35.7716 47.672 36.0756 47.94 36.4676 48.132C36.8676 48.324 37.3036 48.42 37.7756 48.42ZM46.5506 51V35.028L49.5506 33.672V51H46.5506ZM58.359 51.288C56.631 51.288 55.267 50.716 54.267 49.572C53.267 48.428 52.767 46.864 52.767 44.88C52.767 43.568 52.995 42.432 53.451 41.472C53.907 40.504 54.551 39.76 55.383 39.24C56.223 38.712 57.215 38.448 58.359 38.448C59.495 38.448 60.479 38.708 61.311 39.228C62.143 39.748 62.783 40.488 63.231 41.448C63.679 42.408 63.903 43.548 63.903 44.868C63.903 46.196 63.679 47.34 63.231 48.3C62.791 49.26 62.155 50 61.323 50.52C60.491 51.032 59.503 51.288 58.359 51.288ZM58.359 48.42C59.167 48.42 59.795 48.108 60.243 47.484C60.691 46.86 60.915 45.988 60.915 44.868C60.915 43.748 60.687 42.876 60.231 42.252C59.783 41.62 59.159 41.304 58.359 41.304C57.551 41.304 56.919 41.62 56.463 42.252C56.007 42.884 55.779 43.76 55.779 44.88C55.779 45.984 56.007 46.852 56.463 47.484C56.919 48.108 57.551 48.42 58.359 48.42ZM70.7265 51.288C69.3905 51.288 68.3305 50.928 67.5465 50.208C66.7705 49.48 66.3825 48.496 66.3825 47.256C66.3825 46.456 66.5825 45.756 66.9825 45.156C67.3905 44.548 67.9545 44.08 68.6745 43.752C69.4025 43.416 70.2505 43.248 71.2185 43.248C71.7545 43.248 72.2705 43.3 72.7665 43.404C73.2705 43.5 73.7105 43.64 74.0865 43.824V43.056C74.0865 42.368 73.8905 41.852 73.4985 41.508C73.1145 41.156 72.5465 40.98 71.7945 40.98C71.1945 40.98 70.5785 41.088 69.9465 41.304C69.3145 41.52 68.6745 41.84 68.0265 42.264L67.1265 39.9C67.8305 39.436 68.6145 39.08 69.4785 38.832C70.3425 38.576 71.2145 38.448 72.0945 38.448C73.7425 38.448 74.9745 38.84 75.7905 39.624C76.6065 40.4 77.0145 41.56 77.0145 43.104V51H74.0865V50.016C73.6705 50.432 73.1745 50.748 72.5985 50.964C72.0305 51.18 71.4065 51.288 70.7265 51.288ZM71.4225 48.756C71.9185 48.756 72.3945 48.66 72.8505 48.468C73.3145 48.268 73.7265 47.988 74.0865 47.628V46.176C73.7425 46.008 73.3585 45.88 72.9345 45.792C72.5185 45.696 72.1025 45.648 71.6865 45.648C70.9425 45.648 70.3545 45.792 69.9225 46.08C69.4985 46.36 69.2865 46.752 69.2865 47.256C69.2865 47.728 69.4745 48.096 69.8505 48.36C70.2265 48.624 70.7505 48.756 71.4225 48.756ZM84.983 51.288C83.407 51.288 82.171 50.72 81.275 49.584C80.379 48.448 79.931 46.872 79.931 44.856C79.931 43.576 80.143 42.456 80.567 41.496C80.991 40.536 81.583 39.788 82.343 39.252C83.111 38.716 84.003 38.448 85.019 38.448C86.107 38.448 86.999 38.848 87.695 39.648V35.028L90.683 33.672V51H87.695V49.992C87.103 50.856 86.199 51.288 84.983 51.288ZM85.475 48.42C85.987 48.42 86.423 48.332 86.783 48.156C87.143 47.972 87.447 47.7 87.695 47.34V42.384C87.447 42.048 87.123 41.784 86.723 41.592C86.331 41.4 85.915 41.304 85.475 41.304C84.667 41.304 84.043 41.612 83.603 42.228C83.163 42.836 82.943 43.712 82.943 44.856C82.943 45.608 83.043 46.252 83.243 46.788C83.443 47.316 83.731 47.72 84.107 48C84.483 48.28 84.939 48.42 85.475 48.42ZM104.055 51.288C102.719 51.288 101.659 50.928 100.875 50.208C100.099 49.48 99.7106 48.496 99.7106 47.256C99.7106 46.456 99.9106 45.756 100.311 45.156C100.719 44.548 101.283 44.08 102.003 43.752C102.731 43.416 103.579 43.248 104.547 43.248C105.083 43.248 105.599 43.3 106.095 43.404C106.599 43.5 107.039 43.64 107.415 43.824V43.056C107.415 42.368 107.219 41.852 106.827 41.508C106.443 41.156 105.875 40.98 105.123 40.98C104.523 40.98 103.907 41.088 103.275 41.304C102.643 41.52 102.003 41.84 101.355 42.264L100.455 39.9C101.159 39.436 101.943 39.08 102.807 38.832C103.671 38.576 104.543 38.448 105.423 38.448C107.071 38.448 108.303 38.84 109.119 39.624C109.935 40.4 110.343 41.56 110.343 43.104V51H107.415V50.016C106.999 50.432 106.503 50.748 105.927 50.964C105.359 51.18 104.735 51.288 104.055 51.288ZM104.751 48.756C105.247 48.756 105.723 48.66 106.179 48.468C106.643 48.268 107.055 47.988 107.415 47.628V46.176C107.071 46.008 106.687 45.88 106.263 45.792C105.847 45.696 105.431 45.648 105.015 45.648C104.271 45.648 103.683 45.792 103.251 46.08C102.827 46.36 102.615 46.752 102.615 47.256C102.615 47.728 102.803 48.096 103.179 48.36C103.555 48.624 104.079 48.756 104.751 48.756ZM113.931 51V38.736H116.931V39.912C117.323 39.424 117.791 39.06 118.335 38.82C118.887 38.572 119.515 38.448 120.219 38.448C121.587 38.448 122.643 38.872 123.387 39.72C124.131 40.56 124.503 41.772 124.503 43.356V51H121.515V44.28C121.515 43.248 121.335 42.496 120.975 42.024C120.623 41.544 120.071 41.304 119.319 41.304C118.503 41.304 117.899 41.544 117.507 42.024C117.123 42.496 116.931 43.232 116.931 44.232V51H113.931ZM132.655 51.288C131.079 51.288 129.843 50.72 128.947 49.584C128.051 48.448 127.603 46.872 127.603 44.856C127.603 43.576 127.815 42.456 128.239 41.496C128.663 40.536 129.255 39.788 130.015 39.252C130.783 38.716 131.675 38.448 132.691 38.448C133.779 38.448 134.671 38.848 135.367 39.648V35.028L138.355 33.672V51H135.367V49.992C134.775 50.856 133.871 51.288 132.655 51.288ZM133.147 48.42C133.659 48.42 134.095 48.332 134.455 48.156C134.815 47.972 135.119 47.7 135.367 47.34V42.384C135.119 42.048 134.795 41.784 134.395 41.592C134.003 41.4 133.587 41.304 133.147 41.304C132.339 41.304 131.715 41.612 131.275 42.228C130.835 42.836 130.615 43.712 130.615 44.856C130.615 45.608 130.715 46.252 130.915 46.788C131.115 47.316 131.403 47.72 131.779 48C132.155 48.28 132.611 48.42 133.147 48.42ZM152.11 51.288C151.15 51.288 150.23 51.084 149.35 50.676C148.478 50.268 147.786 49.72 147.274 49.032L149.242 47.376C149.65 47.808 150.122 48.152 150.658 48.408C151.194 48.656 151.706 48.78 152.194 48.78C152.802 48.78 153.27 48.68 153.598 48.48C153.926 48.272 154.09 47.984 154.09 47.616C154.09 47.376 154.01 47.164 153.85 46.98C153.698 46.788 153.426 46.596 153.034 46.404C152.642 46.204 152.09 45.976 151.378 45.72C150.002 45.216 149.026 44.672 148.45 44.088C147.874 43.496 147.586 42.748 147.586 41.844C147.586 40.836 147.994 40.02 148.81 39.396C149.626 38.764 150.69 38.448 152.002 38.448C152.898 38.448 153.722 38.616 154.474 38.952C155.234 39.288 155.886 39.78 156.43 40.428L154.474 42.048C153.754 41.32 152.914 40.956 151.954 40.956C151.466 40.956 151.074 41.048 150.778 41.232C150.482 41.408 150.334 41.648 150.334 41.952C150.334 42.248 150.506 42.512 150.85 42.744C151.202 42.976 151.854 43.248 152.806 43.56C153.75 43.856 154.514 44.192 155.098 44.568C155.69 44.944 156.122 45.38 156.394 45.876C156.674 46.372 156.814 46.944 156.814 47.592C156.814 48.744 156.394 49.648 155.554 50.304C154.722 50.96 153.574 51.288 152.11 51.288ZM164.756 51.288C163.58 51.288 162.564 51.024 161.708 50.496C160.86 49.968 160.204 49.224 159.74 48.264C159.284 47.296 159.056 46.16 159.056 44.856C159.056 43.536 159.288 42.396 159.752 41.436C160.224 40.476 160.884 39.74 161.732 39.228C162.588 38.708 163.596 38.448 164.756 38.448C165.748 38.448 166.648 38.656 167.456 39.072C168.264 39.488 168.908 40.128 169.388 40.992C169.868 41.848 170.108 42.94 170.108 44.268C170.108 44.476 170.1 44.732 170.084 45.036C170.076 45.332 170.056 45.632 170.024 45.936H162.02C162.052 46.496 162.18 46.988 162.404 47.412C162.636 47.828 162.952 48.152 163.352 48.384C163.752 48.616 164.224 48.732 164.768 48.732C165.352 48.732 165.86 48.636 166.292 48.444C166.724 48.244 167.132 47.928 167.516 47.496L169.244 49.284C168.716 49.884 168.08 50.368 167.336 50.736C166.592 51.104 165.732 51.288 164.756 51.288ZM162.032 43.596H167.204C167.164 43.06 167.044 42.6 166.844 42.216C166.644 41.824 166.364 41.524 166.004 41.316C165.644 41.108 165.208 41.004 164.696 41.004C163.992 41.004 163.392 41.22 162.896 41.652C162.4 42.084 162.112 42.732 162.032 43.596ZM173.183 51V35.028L176.183 33.672V51H173.183ZM185.1 51.288C183.924 51.288 182.908 51.024 182.052 50.496C181.204 49.968 180.548 49.224 180.084 48.264C179.628 47.296 179.4 46.16 179.4 44.856C179.4 43.536 179.632 42.396 180.096 41.436C180.568 40.476 181.228 39.74 182.076 39.228C182.932 38.708 183.94 38.448 185.1 38.448C186.092 38.448 186.992 38.656 187.8 39.072C188.608 39.488 189.252 40.128 189.732 40.992C190.212 41.848 190.452 42.94 190.452 44.268C190.452 44.476 190.444 44.732 190.428 45.036C190.42 45.332 190.4 45.632 190.368 45.936H182.364C182.396 46.496 182.524 46.988 182.748 47.412C182.98 47.828 183.296 48.152 183.696 48.384C184.096 48.616 184.568 48.732 185.112 48.732C185.696 48.732 186.204 48.636 186.636 48.444C187.068 48.244 187.476 47.928 187.86 47.496L189.588 49.284C189.06 49.884 188.424 50.368 187.68 50.736C186.936 51.104 186.076 51.288 185.1 51.288ZM182.376 43.596H187.548C187.508 43.06 187.388 42.6 187.188 42.216C186.988 41.824 186.708 41.524 186.348 41.316C185.988 41.108 185.552 41.004 185.04 41.004C184.336 41.004 183.736 41.22 183.24 41.652C182.744 42.084 182.456 42.732 182.376 43.596ZM198.689 51.288C197.561 51.288 196.585 51.028 195.761 50.508C194.937 49.988 194.301 49.252 193.853 48.3C193.405 47.34 193.181 46.2 193.181 44.88C193.181 43.56 193.405 42.42 193.853 41.46C194.309 40.5 194.953 39.76 195.785 39.24C196.617 38.712 197.597 38.448 198.725 38.448C199.997 38.448 201.053 38.744 201.893 39.336C202.741 39.92 203.353 40.788 203.729 41.94L200.885 42.9C200.693 42.388 200.413 41.996 200.045 41.724C199.677 41.444 199.253 41.304 198.773 41.304C197.997 41.304 197.377 41.624 196.913 42.264C196.457 42.904 196.229 43.776 196.229 44.88C196.229 45.968 196.453 46.832 196.901 47.472C197.349 48.112 197.953 48.432 198.713 48.432C199.249 48.432 199.705 48.28 200.081 47.976C200.465 47.672 200.749 47.228 200.933 46.644L203.765 47.496C203.405 48.752 202.793 49.7 201.929 50.34C201.073 50.972 199.993 51.288 198.689 51.288ZM210.272 51.288C209.296 51.288 208.564 51.02 208.076 50.484C207.588 49.948 207.344 49.148 207.344 48.084V41.364H205.556V38.736H207.344V35.1L210.32 33.672V38.736H213.104V41.364H210.32V47.544C210.32 47.928 210.396 48.212 210.548 48.396C210.708 48.58 210.956 48.672 211.292 48.672C211.884 48.672 212.532 48.488 213.236 48.12L212.888 50.736C212.52 50.92 212.12 51.056 211.688 51.144C211.256 51.24 210.784 51.288 210.272 51.288ZM226.978 51.288C225.85 51.288 224.874 51.028 224.05 50.508C223.226 49.988 222.59 49.252 222.142 48.3C221.694 47.34 221.47 46.2 221.47 44.88C221.47 43.56 221.694 42.42 222.142 41.46C222.598 40.5 223.242 39.76 224.074 39.24C224.906 38.712 225.886 38.448 227.014 38.448C228.286 38.448 229.342 38.744 230.182 39.336C231.03 39.92 231.642 40.788 232.018 41.94L229.174 42.9C228.982 42.388 228.702 41.996 228.334 41.724C227.966 41.444 227.542 41.304 227.062 41.304C226.286 41.304 225.666 41.624 225.202 42.264C224.746 42.904 224.518 43.776 224.518 44.88C224.518 45.968 224.742 46.832 225.19 47.472C225.638 48.112 226.242 48.432 227.002 48.432C227.538 48.432 227.994 48.28 228.37 47.976C228.754 47.672 229.038 47.228 229.222 46.644L232.054 47.496C231.694 48.752 231.082 49.7 230.218 50.34C229.362 50.972 228.282 51.288 226.978 51.288ZM240 51.288C238.272 51.288 236.908 50.716 235.908 49.572C234.908 48.428 234.408 46.864 234.408 44.88C234.408 43.568 234.636 42.432 235.092 41.472C235.548 40.504 236.192 39.76 237.024 39.24C237.864 38.712 238.856 38.448 240 38.448C241.136 38.448 242.12 38.708 242.952 39.228C243.784 39.748 244.424 40.488 244.872 41.448C245.32 42.408 245.544 43.548 245.544 44.868C245.544 46.196 245.32 47.34 244.872 48.3C244.432 49.26 243.796 50 242.964 50.52C242.132 51.032 241.144 51.288 240 51.288ZM240 48.42C240.808 48.42 241.436 48.108 241.884 47.484C242.332 46.86 242.556 45.988 242.556 44.868C242.556 43.748 242.328 42.876 241.872 42.252C241.424 41.62 240.8 41.304 240 41.304C239.192 41.304 238.56 41.62 238.104 42.252C237.648 42.884 237.42 43.76 237.42 44.88C237.42 45.984 237.648 46.852 238.104 47.484C238.56 48.108 239.192 48.42 240 48.42ZM248.415 51V38.736H251.415V39.912C251.807 39.424 252.275 39.06 252.819 38.82C253.371 38.572 253.999 38.448 254.703 38.448C256.071 38.448 257.127 38.872 257.871 39.72C258.615 40.56 258.987 41.772 258.987 43.356V51H255.999V44.28C255.999 43.248 255.819 42.496 255.459 42.024C255.107 41.544 254.555 41.304 253.803 41.304C252.987 41.304 252.383 41.544 251.991 42.024C251.607 42.496 251.415 43.232 251.415 44.232V51H248.415ZM265.843 51.288C264.867 51.288 264.135 51.02 263.647 50.484C263.159 49.948 262.915 49.148 262.915 48.084V41.364H261.127V38.736H262.915V35.1L265.891 33.672V38.736H268.675V41.364H265.891V47.544C265.891 47.928 265.967 48.212 266.119 48.396C266.279 48.58 266.527 48.672 266.863 48.672C267.455 48.672 268.103 48.488 268.807 48.12L268.459 50.736C268.091 50.92 267.691 51.056 267.259 51.144C266.827 51.24 266.355 51.288 265.843 51.288ZM276.623 51.288C275.447 51.288 274.431 51.024 273.575 50.496C272.727 49.968 272.071 49.224 271.607 48.264C271.151 47.296 270.923 46.16 270.923 44.856C270.923 43.536 271.155 42.396 271.619 41.436C272.091 40.476 272.751 39.74 273.599 39.228C274.455 38.708 275.463 38.448 276.623 38.448C277.615 38.448 278.515 38.656 279.323 39.072C280.131 39.488 280.775 40.128 281.255 40.992C281.735 41.848 281.975 42.94 281.975 44.268C281.975 44.476 281.967 44.732 281.951 45.036C281.943 45.332 281.923 45.632 281.891 45.936H273.887C273.919 46.496 274.047 46.988 274.271 47.412C274.503 47.828 274.819 48.152 275.219 48.384C275.619 48.616 276.091 48.732 276.635 48.732C277.219 48.732 277.727 48.636 278.159 48.444C278.591 48.244 278.999 47.928 279.383 47.496L281.111 49.284C280.583 49.884 279.947 50.368 279.203 50.736C278.459 51.104 277.599 51.288 276.623 51.288ZM273.899 43.596H279.071C279.031 43.06 278.911 42.6 278.711 42.216C278.511 41.824 278.231 41.524 277.871 41.316C277.511 41.108 277.075 41.004 276.563 41.004C275.859 41.004 275.259 41.22 274.763 41.652C274.267 42.084 273.979 42.732 273.899 43.596ZM285.001 51V38.736H288.001V39.912C288.393 39.424 288.861 39.06 289.405 38.82C289.957 38.572 290.585 38.448 291.289 38.448C292.657 38.448 293.713 38.872 294.457 39.72C295.201 40.56 295.573 41.772 295.573 43.356V51H292.585V44.28C292.585 43.248 292.405 42.496 292.045 42.024C291.693 41.544 291.141 41.304 290.389 41.304C289.573 41.304 288.969 41.544 288.577 42.024C288.193 42.496 288.001 43.232 288.001 44.232V51H285.001ZM302.428 51.288C301.452 51.288 300.72 51.02 300.232 50.484C299.744 49.948 299.5 49.148 299.5 48.084V41.364H297.712V38.736H299.5V35.1L302.476 33.672V38.736H305.26V41.364H302.476V47.544C302.476 47.928 302.552 48.212 302.704 48.396C302.864 48.58 303.112 48.672 303.448 48.672C304.04 48.672 304.688 48.488 305.392 48.12L305.044 50.736C304.676 50.92 304.276 51.056 303.844 51.144C303.412 51.24 302.94 51.288 302.428 51.288ZM79.5976 81.288C78.2616 81.288 77.2016 80.928 76.4176 80.208C75.6416 79.48 75.2536 78.496 75.2536 77.256C75.2536 76.456 75.4536 75.756 75.8536 75.156C76.2616 74.548 76.8256 74.08 77.5456 73.752C78.2736 73.416 79.1216 73.248 80.0896 73.248C80.6256 73.248 81.1416 73.3 81.6376 73.404C82.1416 73.5 82.5816 73.64 82.9576 73.824V73.056C82.9576 72.368 82.7616 71.852 82.3696 71.508C81.9856 71.156 81.4176 70.98 80.6656 70.98C80.0656 70.98 79.4496 71.088 78.8176 71.304C78.1856 71.52 77.5456 71.84 76.8976 72.264L75.9976 69.9C76.7016 69.436 77.4856 69.08 78.3496 68.832C79.2136 68.576 80.0856 68.448 80.9656 68.448C82.6136 68.448 83.8456 68.84 84.6616 69.624C85.4776 70.4 85.8856 71.56 85.8856 73.104V81H82.9576V80.016C82.5416 80.432 82.0456 80.748 81.4696 80.964C80.9016 81.18 80.2776 81.288 79.5976 81.288ZM80.2936 78.756C80.7896 78.756 81.2656 78.66 81.7216 78.468C82.1856 78.268 82.5976 77.988 82.9576 77.628V76.176C82.6136 76.008 82.2296 75.88 81.8056 75.792C81.3896 75.696 80.9736 75.648 80.5576 75.648C79.8136 75.648 79.2256 75.792 78.7936 76.08C78.3696 76.36 78.1576 76.752 78.1576 77.256C78.1576 77.728 78.3456 78.096 78.7216 78.36C79.0976 78.624 79.6216 78.756 80.2936 78.756ZM89.4736 81V68.736H92.4736V69.912C92.8656 69.424 93.3336 69.06 93.8776 68.82C94.4296 68.572 95.0576 68.448 95.7616 68.448C97.1296 68.448 98.1856 68.872 98.9296 69.72C99.6736 70.56 100.046 71.772 100.046 73.356V81H97.0576V74.28C97.0576 73.248 96.8776 72.496 96.5176 72.024C96.1656 71.544 95.6136 71.304 94.8616 71.304C94.0456 71.304 93.4416 71.544 93.0496 72.024C92.6656 72.496 92.4736 73.232 92.4736 74.232V81H89.4736ZM108.198 81.288C106.622 81.288 105.386 80.72 104.49 79.584C103.594 78.448 103.146 76.872 103.146 74.856C103.146 73.576 103.358 72.456 103.782 71.496C104.206 70.536 104.798 69.788 105.558 69.252C106.326 68.716 107.218 68.448 108.234 68.448C109.322 68.448 110.214 68.848 110.91 69.648V65.028L113.898 63.672V81H110.91V79.992C110.318 80.856 109.414 81.288 108.198 81.288ZM108.69 78.42C109.202 78.42 109.638 78.332 109.998 78.156C110.358 77.972 110.662 77.7 110.91 77.34V72.384C110.662 72.048 110.338 71.784 109.938 71.592C109.546 71.4 109.13 71.304 108.69 71.304C107.882 71.304 107.258 71.612 106.818 72.228C106.378 72.836 106.158 73.712 106.158 74.856C106.158 75.608 106.258 76.252 106.458 76.788C106.658 77.316 106.946 77.72 107.322 78C107.698 78.28 108.154 78.42 108.69 78.42ZM128.049 81.288C126.473 81.288 125.237 80.72 124.341 79.584C123.445 78.448 122.997 76.872 122.997 74.856C122.997 73.576 123.209 72.456 123.633 71.496C124.057 70.536 124.649 69.788 125.409 69.252C126.177 68.716 127.069 68.448 128.085 68.448C129.173 68.448 130.065 68.848 130.761 69.648V65.028L133.749 63.672V81H130.761V79.992C130.169 80.856 129.265 81.288 128.049 81.288ZM128.541 78.42C129.053 78.42 129.489 78.332 129.849 78.156C130.209 77.972 130.513 77.7 130.761 77.34V72.384C130.513 72.048 130.189 71.784 129.789 71.592C129.397 71.4 128.981 71.304 128.541 71.304C127.733 71.304 127.109 71.612 126.669 72.228C126.229 72.836 126.009 73.712 126.009 74.856C126.009 75.608 126.109 76.252 126.309 76.788C126.509 77.316 126.797 77.72 127.173 78C127.549 78.28 128.005 78.42 128.541 78.42ZM142.441 81.288C140.713 81.288 139.349 80.716 138.349 79.572C137.349 78.428 136.849 76.864 136.849 74.88C136.849 73.568 137.077 72.432 137.533 71.472C137.989 70.504 138.633 69.76 139.465 69.24C140.305 68.712 141.297 68.448 142.441 68.448C143.577 68.448 144.561 68.708 145.393 69.228C146.225 69.748 146.865 70.488 147.313 71.448C147.761 72.408 147.985 73.548 147.985 74.868C147.985 76.196 147.761 77.34 147.313 78.3C146.873 79.26 146.237 80 145.405 80.52C144.573 81.032 143.585 81.288 142.441 81.288ZM142.441 78.42C143.249 78.42 143.877 78.108 144.325 77.484C144.773 76.86 144.997 75.988 144.997 74.868C144.997 73.748 144.769 72.876 144.313 72.252C143.865 71.62 143.241 71.304 142.441 71.304C141.633 71.304 141.001 71.62 140.545 72.252C140.089 72.884 139.861 73.76 139.861 74.88C139.861 75.984 140.089 76.852 140.545 77.484C141.001 78.108 141.633 78.42 142.441 78.42ZM156.091 81.288C154.963 81.288 153.987 81.028 153.163 80.508C152.339 79.988 151.703 79.252 151.255 78.3C150.807 77.34 150.583 76.2 150.583 74.88C150.583 73.56 150.807 72.42 151.255 71.46C151.711 70.5 152.355 69.76 153.187 69.24C154.019 68.712 154.999 68.448 156.127 68.448C157.399 68.448 158.455 68.744 159.295 69.336C160.143 69.92 160.755 70.788 161.131 71.94L158.287 72.9C158.095 72.388 157.815 71.996 157.447 71.724C157.079 71.444 156.655 71.304 156.175 71.304C155.399 71.304 154.779 71.624 154.315 72.264C153.859 72.904 153.631 73.776 153.631 74.88C153.631 75.968 153.855 76.832 154.303 77.472C154.751 78.112 155.355 78.432 156.115 78.432C156.651 78.432 157.107 78.28 157.483 77.976C157.867 77.672 158.151 77.228 158.335 76.644L161.167 77.496C160.807 78.752 160.195 79.7 159.331 80.34C158.475 80.972 157.395 81.288 156.091 81.288ZM168.287 81.288C166.919 81.288 165.859 80.864 165.107 80.016C164.355 79.16 163.979 77.952 163.979 76.392V68.736H166.979V75.456C166.979 76.488 167.155 77.24 167.507 77.712C167.859 78.184 168.415 78.42 169.175 78.42C169.991 78.42 170.591 78.184 170.975 77.712C171.367 77.232 171.563 76.496 171.563 75.504V68.736H174.551V81H171.563V79.848C171.187 80.328 170.723 80.688 170.171 80.928C169.627 81.168 168.999 81.288 168.287 81.288ZM178.325 81V68.736H181.325V69.876C181.717 69.38 182.157 69.02 182.645 68.796C183.141 68.564 183.701 68.448 184.325 68.448C185.053 68.448 185.677 68.596 186.197 68.892C186.717 69.188 187.121 69.62 187.409 70.188C187.817 69.628 188.341 69.2 188.981 68.904C189.621 68.6 190.345 68.448 191.153 68.448C192.657 68.448 193.793 68.852 194.561 69.66C195.329 70.468 195.713 71.668 195.713 73.26V81H192.725V74.292C192.725 73.268 192.557 72.516 192.221 72.036C191.885 71.548 191.365 71.304 190.661 71.304C190.181 71.304 189.781 71.412 189.461 71.628C189.149 71.844 188.913 72.172 188.753 72.612C188.593 73.044 188.513 73.592 188.513 74.256V81H185.525V74.292C185.525 73.26 185.361 72.504 185.033 72.024C184.705 71.544 184.185 71.304 183.473 71.304C182.745 71.304 182.205 71.54 181.853 72.012C181.501 72.484 181.325 73.216 181.325 74.208V81H178.325ZM204.518 81.288C203.342 81.288 202.326 81.024 201.47 80.496C200.622 79.968 199.966 79.224 199.502 78.264C199.046 77.296 198.818 76.16 198.818 74.856C198.818 73.536 199.05 72.396 199.514 71.436C199.986 70.476 200.646 69.74 201.494 69.228C202.35 68.708 203.358 68.448 204.518 68.448C205.51 68.448 206.41 68.656 207.218 69.072C208.026 69.488 208.67 70.128 209.15 70.992C209.63 71.848 209.87 72.94 209.87 74.268C209.87 74.476 209.862 74.732 209.846 75.036C209.838 75.332 209.818 75.632 209.786 75.936H201.782C201.814 76.496 201.942 76.988 202.166 77.412C202.398 77.828 202.714 78.152 203.114 78.384C203.514 78.616 203.986 78.732 204.53 78.732C205.114 78.732 205.622 78.636 206.054 78.444C206.486 78.244 206.894 77.928 207.278 77.496L209.006 79.284C208.478 79.884 207.842 80.368 207.098 80.736C206.354 81.104 205.494 81.288 204.518 81.288ZM201.794 73.596H206.966C206.926 73.06 206.806 72.6 206.606 72.216C206.406 71.824 206.126 71.524 205.766 71.316C205.406 71.108 204.97 71.004 204.458 71.004C203.754 71.004 203.154 71.22 202.658 71.652C202.162 72.084 201.874 72.732 201.794 73.596ZM212.895 81V68.736H215.895V69.912C216.287 69.424 216.755 69.06 217.299 68.82C217.851 68.572 218.479 68.448 219.183 68.448C220.551 68.448 221.607 68.872 222.351 69.72C223.095 70.56 223.467 71.772 223.467 73.356V81H220.479V74.28C220.479 73.248 220.299 72.496 219.939 72.024C219.587 71.544 219.035 71.304 218.283 71.304C217.467 71.304 216.863 71.544 216.471 72.024C216.087 72.496 215.895 73.232 215.895 74.232V81H212.895ZM230.323 81.288C229.347 81.288 228.615 81.02 228.127 80.484C227.639 79.948 227.395 79.148 227.395 78.084V71.364H225.607V68.736H227.395V65.1L230.371 63.672V68.736H233.155V71.364H230.371V77.544C230.371 77.928 230.447 78.212 230.599 78.396C230.759 78.58 231.007 78.672 231.343 78.672C231.935 78.672 232.583 78.488 233.287 78.12L232.939 80.736C232.571 80.92 232.171 81.056 231.739 81.144C231.307 81.24 230.835 81.288 230.323 81.288ZM239.966 81.288C239.006 81.288 238.086 81.084 237.206 80.676C236.334 80.268 235.642 79.72 235.13 79.032L237.098 77.376C237.506 77.808 237.978 78.152 238.514 78.408C239.05 78.656 239.562 78.78 240.05 78.78C240.658 78.78 241.126 78.68 241.454 78.48C241.782 78.272 241.946 77.984 241.946 77.616C241.946 77.376 241.866 77.164 241.706 76.98C241.554 76.788 241.282 76.596 240.89 76.404C240.498 76.204 239.946 75.976 239.234 75.72C237.858 75.216 236.882 74.672 236.306 74.088C235.73 73.496 235.442 72.748 235.442 71.844C235.442 70.836 235.85 70.02 236.666 69.396C237.482 68.764 238.546 68.448 239.858 68.448C240.754 68.448 241.578 68.616 242.33 68.952C243.09 69.288 243.742 69.78 244.286 70.428L242.33 72.048C241.61 71.32 240.77 70.956 239.81 70.956C239.322 70.956 238.93 71.048 238.634 71.232C238.338 71.408 238.19 71.648 238.19 71.952C238.19 72.248 238.362 72.512 238.706 72.744C239.058 72.976 239.71 73.248 240.662 73.56C241.606 73.856 242.37 74.192 242.954 74.568C243.546 74.944 243.978 75.38 244.25 75.876C244.53 76.372 244.67 76.944 244.67 77.592C244.67 78.744 244.25 79.648 243.41 80.304C242.578 80.96 241.43 81.288 239.966 81.288Z" fill="white"/>
<path d="M420 64.4402C420 64.9925 420.676 65.383 421.155 65.1068L428.845 60.6667C429.324 60.3905 429.324 59.6095 428.845 59.3333L421.155 54.8932C420.676 54.617 420 55.0075 420 55.5598V64.4402ZM350 61H421V59H350V61Z" fill="#FC00FF"/>
<path d="M489.16 51V34.2H494.824C496.28 34.2 497.52 34.44 498.544 34.92C499.568 35.392 500.396 36.032 501.028 36.84C501.668 37.64 502.132 38.54 502.42 39.54C502.716 40.532 502.864 41.552 502.864 42.6C502.864 43.56 502.724 44.532 502.444 45.516C502.172 46.5 501.724 47.408 501.1 48.24C500.476 49.064 499.64 49.732 498.592 50.244C497.552 50.748 496.264 51 494.728 51H489.16ZM492.268 48.048H495.052C495.908 48.048 496.628 47.888 497.212 47.568C497.796 47.24 498.264 46.812 498.616 46.284C498.976 45.748 499.236 45.16 499.396 44.52C499.564 43.872 499.648 43.232 499.648 42.6C499.648 41.928 499.564 41.268 499.396 40.62C499.228 39.972 498.968 39.384 498.616 38.856C498.264 38.328 497.816 37.908 497.272 37.596C496.728 37.284 496.076 37.128 495.316 37.128H492.268V48.048ZM510.267 51.288C508.899 51.288 507.839 50.864 507.087 50.016C506.335 49.16 505.959 47.952 505.959 46.392V38.736H508.959V45.456C508.959 46.488 509.135 47.24 509.487 47.712C509.839 48.184 510.395 48.42 511.155 48.42C511.971 48.42 512.571 48.184 512.955 47.712C513.347 47.232 513.543 46.496 513.543 45.504V38.736H516.531V51H513.543V49.848C513.167 50.328 512.703 50.688 512.151 50.928C511.607 51.168 510.979 51.288 510.267 51.288ZM525.85 51.288C525.29 51.288 524.806 51.188 524.398 50.988C523.998 50.788 523.626 50.464 523.282 50.016V51H520.282V35.028L523.282 33.672V39.696C523.594 39.296 523.978 38.988 524.434 38.772C524.898 38.556 525.402 38.448 525.946 38.448C526.962 38.448 527.85 38.716 528.61 39.252C529.37 39.788 529.962 40.54 530.386 41.508C530.818 42.468 531.034 43.584 531.034 44.856C531.034 46.88 530.574 48.46 529.654 49.596C528.742 50.724 527.474 51.288 525.85 51.288ZM525.49 48.42C526.306 48.42 526.93 48.112 527.362 47.496C527.802 46.88 528.022 46 528.022 44.856C528.022 43.712 527.802 42.836 527.362 42.228C526.93 41.612 526.306 41.304 525.49 41.304C525.042 41.304 524.618 41.404 524.218 41.604C523.818 41.796 523.506 42.056 523.282 42.384V47.34C523.53 47.692 523.834 47.96 524.194 48.144C524.554 48.328 524.986 48.42 525.49 48.42ZM539.702 51.288C539.142 51.288 538.658 51.188 538.25 50.988C537.85 50.788 537.478 50.464 537.134 50.016V51H534.134V35.028L537.134 33.672V39.696C537.446 39.296 537.83 38.988 538.286 38.772C538.75 38.556 539.254 38.448 539.798 38.448C540.814 38.448 541.702 38.716 542.462 39.252C543.222 39.788 543.814 40.54 544.238 41.508C544.67 42.468 544.886 43.584 544.886 44.856C544.886 46.88 544.426 48.46 543.506 49.596C542.594 50.724 541.326 51.288 539.702 51.288ZM539.342 48.42C540.158 48.42 540.782 48.112 541.214 47.496C541.654 46.88 541.874 46 541.874 44.856C541.874 43.712 541.654 42.836 541.214 42.228C540.782 41.612 540.158 41.304 539.342 41.304C538.894 41.304 538.47 41.404 538.07 41.604C537.67 41.796 537.358 42.056 537.134 42.384V47.34C537.382 47.692 537.686 47.96 538.046 48.144C538.406 48.328 538.838 48.42 539.342 48.42ZM553.178 51.288C552.002 51.288 550.986 51.024 550.13 50.496C549.282 49.968 548.626 49.224 548.162 48.264C547.706 47.296 547.478 46.16 547.478 44.856C547.478 43.536 547.71 42.396 548.174 41.436C548.646 40.476 549.306 39.74 550.154 39.228C551.01 38.708 552.018 38.448 553.178 38.448C554.17 38.448 555.07 38.656 555.878 39.072C556.686 39.488 557.33 40.128 557.81 40.992C558.29 41.848 558.53 42.94 558.53 44.268C558.53 44.476 558.522 44.732 558.506 45.036C558.498 45.332 558.478 45.632 558.446 45.936H550.442C550.474 46.496 550.602 46.988 550.826 47.412C551.058 47.828 551.374 48.152 551.774 48.384C552.174 48.616 552.646 48.732 553.19 48.732C553.774 48.732 554.282 48.636 554.714 48.444C555.146 48.244 555.554 47.928 555.938 47.496L557.666 49.284C557.138 49.884 556.502 50.368 555.758 50.736C555.014 51.104 554.154 51.288 553.178 51.288ZM550.454 43.596H555.626C555.586 43.06 555.466 42.6 555.266 42.216C555.066 41.824 554.786 41.524 554.426 41.316C554.066 41.108 553.63 41.004 553.118 41.004C552.414 41.004 551.814 41.22 551.318 41.652C550.822 42.084 550.534 42.732 550.454 43.596ZM566.311 51.288C564.735 51.288 563.499 50.72 562.603 49.584C561.707 48.448 561.259 46.872 561.259 44.856C561.259 43.576 561.471 42.456 561.895 41.496C562.319 40.536 562.911 39.788 563.671 39.252C564.439 38.716 565.331 38.448 566.347 38.448C567.435 38.448 568.327 38.848 569.023 39.648V35.028L572.011 33.672V51H569.023V49.992C568.431 50.856 567.527 51.288 566.311 51.288ZM566.803 48.42C567.315 48.42 567.751 48.332 568.111 48.156C568.471 47.972 568.775 47.7 569.023 47.34V42.384C568.775 42.048 568.451 41.784 568.051 41.592C567.659 41.4 567.243 41.304 566.803 41.304C565.995 41.304 565.371 41.612 564.931 42.228C564.491 42.836 564.271 43.712 564.271 44.856C564.271 45.608 564.371 46.252 564.571 46.788C564.771 47.316 565.059 47.72 565.435 48C565.811 48.28 566.267 48.42 566.803 48.42ZM585.383 51.288C584.047 51.288 582.987 50.928 582.203 50.208C581.427 49.48 581.039 48.496 581.039 47.256C581.039 46.456 581.239 45.756 581.639 45.156C582.047 44.548 582.611 44.08 583.331 43.752C584.059 43.416 584.907 43.248 585.875 43.248C586.411 43.248 586.927 43.3 587.423 43.404C587.927 43.5 588.367 43.64 588.743 43.824V43.056C588.743 42.368 588.547 41.852 588.155 41.508C587.771 41.156 587.203 40.98 586.451 40.98C585.851 40.98 585.235 41.088 584.603 41.304C583.971 41.52 583.331 41.84 582.683 42.264L581.783 39.9C582.487 39.436 583.271 39.08 584.135 38.832C584.999 38.576 585.871 38.448 586.751 38.448C588.399 38.448 589.631 38.84 590.447 39.624C591.263 40.4 591.671 41.56 591.671 43.104V51H588.743V50.016C588.327 50.432 587.831 50.748 587.255 50.964C586.687 51.18 586.063 51.288 585.383 51.288ZM586.079 48.756C586.575 48.756 587.051 48.66 587.507 48.468C587.971 48.268 588.383 47.988 588.743 47.628V46.176C588.399 46.008 588.015 45.88 587.591 45.792C587.175 45.696 586.759 45.648 586.343 45.648C585.599 45.648 585.011 45.792 584.579 46.08C584.155 46.36 583.943 46.752 583.943 47.256C583.943 47.728 584.131 48.096 584.507 48.36C584.883 48.624 585.407 48.756 586.079 48.756ZM595.259 51V38.736H598.259V39.912C598.651 39.424 599.119 39.06 599.663 38.82C600.215 38.572 600.843 38.448 601.547 38.448C602.915 38.448 603.971 38.872 604.715 39.72C605.459 40.56 605.831 41.772 605.831 43.356V51H602.843V44.28C602.843 43.248 602.663 42.496 602.303 42.024C601.951 41.544 601.399 41.304 600.647 41.304C599.831 41.304 599.227 41.544 598.835 42.024C598.451 42.496 598.259 43.232 598.259 44.232V51H595.259ZM613.983 51.288C612.407 51.288 611.171 50.72 610.275 49.584C609.379 48.448 608.931 46.872 608.931 44.856C608.931 43.576 609.143 42.456 609.567 41.496C609.991 40.536 610.583 39.788 611.343 39.252C612.111 38.716 613.003 38.448 614.019 38.448C615.107 38.448 615.999 38.848 616.695 39.648V35.028L619.683 33.672V51H616.695V49.992C616.103 50.856 615.199 51.288 613.983 51.288ZM614.475 48.42C614.987 48.42 615.423 48.332 615.783 48.156C616.143 47.972 616.447 47.7 616.695 47.34V42.384C616.447 42.048 616.123 41.784 615.723 41.592C615.331 41.4 614.915 41.304 614.475 41.304C613.667 41.304 613.043 41.612 612.603 42.228C612.163 42.836 611.943 43.712 611.943 44.856C611.943 45.608 612.043 46.252 612.243 46.788C612.443 47.316 612.731 47.72 613.107 48C613.483 48.28 613.939 48.42 614.475 48.42ZM634.483 51.288C633.307 51.288 632.291 51.024 631.435 50.496C630.587 49.968 629.931 49.224 629.467 48.264C629.011 47.296 628.783 46.16 628.783 44.856C628.783 43.536 629.015 42.396 629.479 41.436C629.951 40.476 630.611 39.74 631.459 39.228C632.315 38.708 633.323 38.448 634.483 38.448C635.475 38.448 636.375 38.656 637.183 39.072C637.991 39.488 638.635 40.128 639.115 40.992C639.595 41.848 639.835 42.94 639.835 44.268C639.835 44.476 639.827 44.732 639.811 45.036C639.803 45.332 639.783 45.632 639.751 45.936H631.747C631.779 46.496 631.907 46.988 632.131 47.412C632.363 47.828 632.679 48.152 633.079 48.384C633.479 48.616 633.951 48.732 634.495 48.732C635.079 48.732 635.587 48.636 636.019 48.444C636.451 48.244 636.859 47.928 637.243 47.496L638.971 49.284C638.443 49.884 637.807 50.368 637.063 50.736C636.319 51.104 635.459 51.288 634.483 51.288ZM631.759 43.596H636.931C636.891 43.06 636.771 42.6 636.571 42.216C636.371 41.824 636.091 41.524 635.731 41.316C635.371 41.108 634.935 41.004 634.423 41.004C633.719 41.004 633.119 41.22 632.623 41.652C632.127 42.084 631.839 42.732 631.759 43.596ZM647.616 51.288C646.04 51.288 644.804 50.72 643.908 49.584C643.012 48.448 642.564 46.872 642.564 44.856C642.564 43.576 642.776 42.456 643.2 41.496C643.624 40.536 644.216 39.788 644.976 39.252C645.744 38.716 646.636 38.448 647.652 38.448C648.74 38.448 649.632 38.848 650.328 39.648V35.028L653.316 33.672V51H650.328V49.992C649.736 50.856 648.832 51.288 647.616 51.288ZM648.108 48.42C648.62 48.42 649.056 48.332 649.416 48.156C649.776 47.972 650.08 47.7 650.328 47.34V42.384C650.08 42.048 649.756 41.784 649.356 41.592C648.964 41.4 648.548 41.304 648.108 41.304C647.3 41.304 646.676 41.612 646.236 42.228C645.796 42.836 645.576 43.712 645.576 44.856C645.576 45.608 645.676 46.252 645.876 46.788C646.076 47.316 646.364 47.72 646.74 48C647.116 48.28 647.572 48.42 648.108 48.42ZM657.087 51V38.736H660.087V51H657.087ZM658.587 37.2C658.107 37.2 657.691 37.028 657.339 36.684C656.995 36.332 656.823 35.916 656.823 35.436C656.823 34.956 656.995 34.548 657.339 34.212C657.683 33.868 658.099 33.696 658.587 33.696C659.091 33.696 659.511 33.864 659.847 34.2C660.183 34.536 660.351 34.948 660.351 35.436C660.351 35.924 660.179 36.34 659.835 36.684C659.499 37.028 659.083 37.2 658.587 37.2ZM667.436 51.288C666.46 51.288 665.728 51.02 665.24 50.484C664.752 49.948 664.508 49.148 664.508 48.084V41.364H662.72V38.736H664.508V35.1L667.484 33.672V38.736H670.268V41.364H667.484V47.544C667.484 47.928 667.56 48.212 667.712 48.396C667.872 48.58 668.12 48.672 668.456 48.672C669.048 48.672 669.696 48.488 670.4 48.12L670.052 50.736C669.684 50.92 669.284 51.056 668.852 51.144C668.42 51.24 667.948 51.288 667.436 51.288ZM678.217 51.288C677.041 51.288 676.025 51.024 675.169 50.496C674.321 49.968 673.665 49.224 673.201 48.264C672.745 47.296 672.517 46.16 672.517 44.856C672.517 43.536 672.749 42.396 673.213 41.436C673.685 40.476 674.345 39.74 675.193 39.228C676.049 38.708 677.057 38.448 678.217 38.448C679.209 38.448 680.109 38.656 680.917 39.072C681.725 39.488 682.369 40.128 682.849 40.992C683.329 41.848 683.569 42.94 683.569 44.268C683.569 44.476 683.561 44.732 683.545 45.036C683.537 45.332 683.517 45.632 683.485 45.936H675.481C675.513 46.496 675.641 46.988 675.865 47.412C676.097 47.828 676.413 48.152 676.813 48.384C677.213 48.616 677.685 48.732 678.229 48.732C678.813 48.732 679.321 48.636 679.753 48.444C680.185 48.244 680.593 47.928 680.977 47.496L682.705 49.284C682.177 49.884 681.541 50.368 680.797 50.736C680.053 51.104 679.193 51.288 678.217 51.288ZM675.493 43.596H680.665C680.625 43.06 680.505 42.6 680.305 42.216C680.105 41.824 679.825 41.524 679.465 41.316C679.105 41.108 678.669 41.004 678.157 41.004C677.453 41.004 676.853 41.22 676.357 41.652C675.861 42.084 675.573 42.732 675.493 43.596ZM691.35 51.288C689.774 51.288 688.538 50.72 687.642 49.584C686.746 48.448 686.298 46.872 686.298 44.856C686.298 43.576 686.51 42.456 686.934 41.496C687.358 40.536 687.95 39.788 688.71 39.252C689.478 38.716 690.37 38.448 691.386 38.448C692.474 38.448 693.366 38.848 694.062 39.648V35.028L697.05 33.672V51H694.062V49.992C693.47 50.856 692.566 51.288 691.35 51.288ZM691.842 48.42C692.354 48.42 692.79 48.332 693.15 48.156C693.51 47.972 693.814 47.7 694.062 47.34V42.384C693.814 42.048 693.49 41.784 693.09 41.592C692.698 41.4 692.282 41.304 691.842 41.304C691.034 41.304 690.41 41.612 689.97 42.228C689.53 42.836 689.31 43.712 689.31 44.856C689.31 45.608 689.41 46.252 689.61 46.788C689.81 47.316 690.098 47.72 690.474 48C690.85 48.28 691.306 48.42 691.842 48.42ZM709.174 51L705.79 38.736H708.742L710.23 44.868C710.286 45.084 710.342 45.348 710.398 45.66C710.462 45.964 710.514 46.248 710.554 46.512C710.61 46.256 710.674 45.972 710.746 45.66C710.818 45.348 710.882 45.084 710.938 44.868L712.582 38.736H715.198L716.83 44.868C716.886 45.092 716.95 45.36 717.022 45.672C717.102 45.984 717.166 46.268 717.214 46.524C717.262 46.26 717.314 45.976 717.37 45.672C717.426 45.368 717.482 45.1 717.538 44.868L719.062 38.736H722.014L718.594 51H715.942L714.334 44.868C714.278 44.644 714.206 44.348 714.118 43.98C714.03 43.612 713.954 43.284 713.89 42.996C713.834 43.284 713.762 43.612 713.674 43.98C713.586 44.348 713.514 44.644 713.458 44.868L711.838 51H709.174ZM724.775 51V38.736H727.775V51H724.775ZM726.275 37.2C725.795 37.2 725.379 37.028 725.027 36.684C724.683 36.332 724.511 35.916 724.511 35.436C724.511 34.956 724.683 34.548 725.027 34.212C725.371 33.868 725.787 33.696 726.275 33.696C726.779 33.696 727.199 33.864 727.535 34.2C727.871 34.536 728.039 34.948 728.039 35.436C728.039 35.924 727.867 36.34 727.523 36.684C727.187 37.028 726.771 37.2 726.275 37.2ZM735.124 51.288C734.148 51.288 733.416 51.02 732.928 50.484C732.44 49.948 732.196 49.148 732.196 48.084V41.364H730.408V38.736H732.196V35.1L735.172 33.672V38.736H737.956V41.364H735.172V47.544C735.172 47.928 735.248 48.212 735.4 48.396C735.56 48.58 735.808 48.672 736.144 48.672C736.736 48.672 737.384 48.488 738.088 48.12L737.74 50.736C737.372 50.92 736.972 51.056 736.54 51.144C736.108 51.24 735.636 51.288 735.124 51.288ZM740.501 51V35.052L743.501 33.672V39.924C743.893 39.428 744.361 39.06 744.905 38.82C745.457 38.572 746.085 38.448 746.789 38.448C747.733 38.448 748.521 38.648 749.153 39.048C749.793 39.44 750.273 40.004 750.593 40.74C750.913 41.468 751.073 42.34 751.073 43.356V51H748.085V44.28C748.085 43.272 747.913 42.524 747.569 42.036C747.225 41.548 746.665 41.304 745.889 41.304C745.073 41.304 744.469 41.544 744.077 42.024C743.693 42.496 743.501 43.232 743.501 44.232V51H740.501ZM482.665 85.872V68.736H485.665V69.636C486.337 68.844 487.237 68.448 488.365 68.448C489.413 68.448 490.317 68.708 491.077 69.228C491.837 69.74 492.421 70.476 492.829 71.436C493.237 72.396 493.441 73.54 493.441 74.868C493.441 76.156 493.229 77.284 492.805 78.252C492.381 79.212 491.785 79.96 491.017 80.496C490.249 81.024 489.353 81.288 488.329 81.288C487.769 81.288 487.265 81.188 486.817 80.988C486.369 80.78 485.985 80.476 485.665 80.076V84.516L482.665 85.872ZM487.885 78.42C488.701 78.42 489.329 78.112 489.769 77.496C490.209 76.872 490.429 75.996 490.429 74.868C490.429 73.74 490.205 72.864 489.757 72.24C489.309 71.616 488.685 71.304 487.885 71.304C487.397 71.304 486.969 71.392 486.601 71.568C486.241 71.744 485.929 72.012 485.665 72.372V77.328C485.881 77.672 486.185 77.94 486.577 78.132C486.977 78.324 487.413 78.42 487.885 78.42ZM496.306 81V68.736H499.306V70.056C499.53 69.584 499.882 69.2 500.362 68.904C500.842 68.6 501.346 68.448 501.874 68.448C502.746 68.448 503.482 68.748 504.082 69.348L503.662 72.096C503.334 71.824 503.014 71.632 502.702 71.52C502.39 71.408 502.046 71.352 501.67 71.352C501.174 71.352 500.75 71.468 500.398 71.7C500.046 71.932 499.774 72.268 499.582 72.708C499.398 73.148 499.306 73.676 499.306 74.292V81H496.306ZM510.601 81.288C508.873 81.288 507.509 80.716 506.509 79.572C505.509 78.428 505.009 76.864 505.009 74.88C505.009 73.568 505.237 72.432 505.693 71.472C506.149 70.504 506.793 69.76 507.625 69.24C508.465 68.712 509.457 68.448 510.601 68.448C511.737 68.448 512.721 68.708 513.553 69.228C514.385 69.748 515.025 70.488 515.473 71.448C515.921 72.408 516.145 73.548 516.145 74.868C516.145 76.196 515.921 77.34 515.473 78.3C515.033 79.26 514.397 80 513.565 80.52C512.733 81.032 511.745 81.288 510.601 81.288ZM510.601 78.42C511.409 78.42 512.037 78.108 512.485 77.484C512.933 76.86 513.157 75.988 513.157 74.868C513.157 73.748 512.929 72.876 512.473 72.252C512.025 71.62 511.401 71.304 510.601 71.304C509.793 71.304 509.161 71.62 508.705 72.252C508.249 72.884 508.021 73.76 508.021 74.88C508.021 75.984 508.249 76.852 508.705 77.484C509.161 78.108 509.793 78.42 510.601 78.42ZM519.712 81V71.364H517.984V68.736H519.712V66.84C519.712 65.88 519.964 65.152 520.468 64.656C520.98 64.16 521.72 63.912 522.688 63.912C523.232 63.912 523.716 63.964 524.14 64.068C524.572 64.164 524.984 64.312 525.376 64.512V66.96C525.048 66.824 524.736 66.72 524.44 66.648C524.144 66.568 523.872 66.528 523.624 66.528C523.32 66.528 523.092 66.604 522.94 66.756C522.788 66.9 522.712 67.124 522.712 67.428V68.736H525.376V71.364H522.712V81H519.712ZM532.272 81.288C531.096 81.288 530.08 81.024 529.224 80.496C528.376 79.968 527.72 79.224 527.256 78.264C526.8 77.296 526.572 76.16 526.572 74.856C526.572 73.536 526.804 72.396 527.268 71.436C527.74 70.476 528.4 69.74 529.248 69.228C530.104 68.708 531.112 68.448 532.272 68.448C533.264 68.448 534.164 68.656 534.972 69.072C535.78 69.488 536.424 70.128 536.904 70.992C537.384 71.848 537.624 72.94 537.624 74.268C537.624 74.476 537.616 74.732 537.6 75.036C537.592 75.332 537.572 75.632 537.54 75.936H529.536C529.568 76.496 529.696 76.988 529.92 77.412C530.152 77.828 530.468 78.152 530.868 78.384C531.268 78.616 531.74 78.732 532.284 78.732C532.868 78.732 533.376 78.636 533.808 78.444C534.24 78.244 534.648 77.928 535.032 77.496L536.76 79.284C536.232 79.884 535.596 80.368 534.852 80.736C534.108 81.104 533.248 81.288 532.272 81.288ZM529.548 73.596H534.72C534.68 73.06 534.56 72.6 534.36 72.216C534.16 71.824 533.88 71.524 533.52 71.316C533.16 71.108 532.724 71.004 532.212 71.004C531.508 71.004 530.908 71.22 530.412 71.652C529.916 72.084 529.628 72.732 529.548 73.596ZM544.376 81.288C543.416 81.288 542.496 81.084 541.616 80.676C540.744 80.268 540.052 79.72 539.54 79.032L541.508 77.376C541.916 77.808 542.388 78.152 542.924 78.408C543.46 78.656 543.972 78.78 544.46 78.78C545.068 78.78 545.536 78.68 545.864 78.48C546.192 78.272 546.356 77.984 546.356 77.616C546.356 77.376 546.276 77.164 546.116 76.98C545.964 76.788 545.692 76.596 545.3 76.404C544.908 76.204 544.356 75.976 543.644 75.72C542.268 75.216 541.292 74.672 540.716 74.088C540.14 73.496 539.852 72.748 539.852 71.844C539.852 70.836 540.26 70.02 541.076 69.396C541.892 68.764 542.956 68.448 544.268 68.448C545.164 68.448 545.988 68.616 546.74 68.952C547.5 69.288 548.152 69.78 548.696 70.428L546.74 72.048C546.02 71.32 545.18 70.956 544.22 70.956C543.732 70.956 543.34 71.048 543.044 71.232C542.748 71.408 542.6 71.648 542.6 71.952C542.6 72.248 542.772 72.512 543.116 72.744C543.468 72.976 544.12 73.248 545.072 73.56C546.016 73.856 546.78 74.192 547.364 74.568C547.956 74.944 548.388 75.38 548.66 75.876C548.94 76.372 549.08 76.944 549.08 77.592C549.08 78.744 548.66 79.648 547.82 80.304C546.988 80.96 545.84 81.288 544.376 81.288ZM556.189 81.288C555.229 81.288 554.309 81.084 553.429 80.676C552.557 80.268 551.865 79.72 551.353 79.032L553.321 77.376C553.729 77.808 554.201 78.152 554.737 78.408C555.273 78.656 555.785 78.78 556.273 78.78C556.881 78.78 557.349 78.68 557.677 78.48C558.005 78.272 558.169 77.984 558.169 77.616C558.169 77.376 558.089 77.164 557.929 76.98C557.777 76.788 557.505 76.596 557.113 76.404C556.721 76.204 556.169 75.976 555.457 75.72C554.081 75.216 553.105 74.672 552.529 74.088C551.953 73.496 551.665 72.748 551.665 71.844C551.665 70.836 552.073 70.02 552.889 69.396C553.705 68.764 554.769 68.448 556.081 68.448C556.977 68.448 557.801 68.616 558.553 68.952C559.313 69.288 559.965 69.78 560.509 70.428L558.553 72.048C557.833 71.32 556.993 70.956 556.033 70.956C555.545 70.956 555.153 71.048 554.857 71.232C554.561 71.408 554.413 71.648 554.413 71.952C554.413 72.248 554.585 72.512 554.929 72.744C555.281 72.976 555.933 73.248 556.885 73.56C557.829 73.856 558.593 74.192 559.177 74.568C559.769 74.944 560.201 75.38 560.473 75.876C560.753 76.372 560.893 76.944 560.893 77.592C560.893 78.744 560.473 79.648 559.633 80.304C558.801 80.96 557.653 81.288 556.189 81.288ZM564.017 81V68.736H567.017V81H564.017ZM565.517 67.2C565.037 67.2 564.621 67.028 564.269 66.684C563.925 66.332 563.753 65.916 563.753 65.436C563.753 64.956 563.925 64.548 564.269 64.212C564.613 63.868 565.029 63.696 565.517 63.696C566.021 63.696 566.441 63.864 566.777 64.2C567.113 64.536 567.281 64.948 567.281 65.436C567.281 65.924 567.109 66.34 566.765 66.684C566.429 67.028 566.013 67.2 565.517 67.2ZM575.734 81.288C574.006 81.288 572.642 80.716 571.642 79.572C570.642 78.428 570.142 76.864 570.142 74.88C570.142 73.568 570.37 72.432 570.826 71.472C571.282 70.504 571.926 69.76 572.758 69.24C573.598 68.712 574.59 68.448 575.734 68.448C576.87 68.448 577.854 68.708 578.686 69.228C579.518 69.748 580.158 70.488 580.606 71.448C581.054 72.408 581.278 73.548 581.278 74.868C581.278 76.196 581.054 77.34 580.606 78.3C580.166 79.26 579.53 80 578.698 80.52C577.866 81.032 576.878 81.288 575.734 81.288ZM575.734 78.42C576.542 78.42 577.17 78.108 577.618 77.484C578.066 76.86 578.29 75.988 578.29 74.868C578.29 73.748 578.062 72.876 577.606 72.252C577.158 71.62 576.534 71.304 575.734 71.304C574.926 71.304 574.294 71.62 573.838 72.252C573.382 72.884 573.154 73.76 573.154 74.88C573.154 75.984 573.382 76.852 573.838 77.484C574.294 78.108 574.926 78.42 575.734 78.42ZM584.149 81V68.736H587.149V69.912C587.541 69.424 588.009 69.06 588.553 68.82C589.105 68.572 589.733 68.448 590.437 68.448C591.805 68.448 592.861 68.872 593.605 69.72C594.349 70.56 594.721 71.772 594.721 73.356V81H591.733V74.28C591.733 73.248 591.553 72.496 591.193 72.024C590.841 71.544 590.289 71.304 589.537 71.304C588.721 71.304 588.117 71.544 587.725 72.024C587.341 72.496 587.149 73.232 587.149 74.232V81H584.149ZM602 81.288C600.664 81.288 599.604 80.928 598.82 80.208C598.044 79.48 597.656 78.496 597.656 77.256C597.656 76.456 597.856 75.756 598.256 75.156C598.664 74.548 599.228 74.08 599.948 73.752C600.676 73.416 601.524 73.248 602.492 73.248C603.028 73.248 603.544 73.3 604.04 73.404C604.544 73.5 604.984 73.64 605.36 73.824V73.056C605.36 72.368 605.164 71.852 604.772 71.508C604.388 71.156 603.82 70.98 603.068 70.98C602.468 70.98 601.852 71.088 601.22 71.304C600.588 71.52 599.948 71.84 599.3 72.264L598.4 69.9C599.104 69.436 599.888 69.08 600.752 68.832C601.616 68.576 602.488 68.448 603.368 68.448C605.016 68.448 606.248 68.84 607.064 69.624C607.88 70.4 608.288 71.56 608.288 73.104V81H605.36V80.016C604.944 80.432 604.448 80.748 603.872 80.964C603.304 81.18 602.68 81.288 602 81.288ZM602.696 78.756C603.192 78.756 603.668 78.66 604.124 78.468C604.588 78.268 605 77.988 605.36 77.628V76.176C605.016 76.008 604.632 75.88 604.208 75.792C603.792 75.696 603.376 75.648 602.96 75.648C602.216 75.648 601.628 75.792 601.196 76.08C600.772 76.36 600.56 76.752 600.56 77.256C600.56 77.728 600.748 78.096 601.124 78.36C601.5 78.624 602.024 78.756 602.696 78.756ZM611.855 81V65.028L614.855 63.672V81H611.855ZM628.008 81L623.52 68.736H626.628L629.196 76.032C629.268 76.208 629.332 76.396 629.388 76.596C629.444 76.796 629.5 76.996 629.556 77.196C629.612 76.996 629.668 76.796 629.724 76.596C629.788 76.396 629.848 76.208 629.904 76.032L632.46 68.736H635.556L631.068 81H628.008ZM642.742 81.288C641.014 81.288 639.65 80.716 638.65 79.572C637.65 78.428 637.15 76.864 637.15 74.88C637.15 73.568 637.378 72.432 637.834 71.472C638.29 70.504 638.934 69.76 639.766 69.24C640.606 68.712 641.598 68.448 642.742 68.448C643.878 68.448 644.862 68.708 645.694 69.228C646.526 69.748 647.166 70.488 647.614 71.448C648.062 72.408 648.286 73.548 648.286 74.868C648.286 76.196 648.062 77.34 647.614 78.3C647.174 79.26 646.538 80 645.706 80.52C644.874 81.032 643.886 81.288 642.742 81.288ZM642.742 78.42C643.55 78.42 644.178 78.108 644.626 77.484C645.074 76.86 645.298 75.988 645.298 74.868C645.298 73.748 645.07 72.876 644.614 72.252C644.166 71.62 643.542 71.304 642.742 71.304C641.934 71.304 641.302 71.62 640.846 72.252C640.39 72.884 640.162 73.76 640.162 74.88C640.162 75.984 640.39 76.852 640.846 77.484C641.302 78.108 641.934 78.42 642.742 78.42ZM651.416 81V68.736H654.416V81H651.416ZM652.916 67.2C652.436 67.2 652.02 67.028 651.668 66.684C651.324 66.332 651.152 65.916 651.152 65.436C651.152 64.956 651.324 64.548 651.668 64.212C652.012 63.868 652.428 63.696 652.916 63.696C653.42 63.696 653.84 63.864 654.176 64.2C654.512 64.536 654.68 64.948 654.68 65.436C654.68 65.924 654.508 66.34 654.164 66.684C653.828 67.028 653.412 67.2 652.916 67.2ZM663.048 81.288C661.92 81.288 660.944 81.028 660.12 80.508C659.296 79.988 658.66 79.252 658.212 78.3C657.764 77.34 657.54 76.2 657.54 74.88C657.54 73.56 657.764 72.42 658.212 71.46C658.668 70.5 659.312 69.76 660.144 69.24C660.976 68.712 661.956 68.448 663.084 68.448C664.356 68.448 665.412 68.744 666.252 69.336C667.1 69.92 667.712 70.788 668.088 71.94L665.244 72.9C665.052 72.388 664.772 71.996 664.404 71.724C664.036 71.444 663.612 71.304 663.132 71.304C662.356 71.304 661.736 71.624 661.272 72.264C660.816 72.904 660.588 73.776 660.588 74.88C660.588 75.968 660.812 76.832 661.26 77.472C661.708 78.112 662.312 78.432 663.072 78.432C663.608 78.432 664.064 78.28 664.44 77.976C664.824 77.672 665.108 77.228 665.292 76.644L668.124 77.496C667.764 78.752 667.152 79.7 666.288 80.34C665.432 80.972 664.352 81.288 663.048 81.288ZM676.178 81.288C675.002 81.288 673.986 81.024 673.13 80.496C672.282 79.968 671.626 79.224 671.162 78.264C670.706 77.296 670.478 76.16 670.478 74.856C670.478 73.536 670.71 72.396 671.174 71.436C671.646 70.476 672.306 69.74 673.154 69.228C674.01 68.708 675.018 68.448 676.178 68.448C677.17 68.448 678.07 68.656 678.878 69.072C679.686 69.488 680.33 70.128 680.81 70.992C681.29 71.848 681.53 72.94 681.53 74.268C681.53 74.476 681.522 74.732 681.506 75.036C681.498 75.332 681.478 75.632 681.446 75.936H673.442C673.474 76.496 673.602 76.988 673.826 77.412C674.058 77.828 674.374 78.152 674.774 78.384C675.174 78.616 675.646 78.732 676.19 78.732C676.774 78.732 677.282 78.636 677.714 78.444C678.146 78.244 678.554 77.928 678.938 77.496L680.666 79.284C680.138 79.884 679.502 80.368 678.758 80.736C678.014 81.104 677.154 81.288 676.178 81.288ZM673.454 73.596H678.626C678.586 73.06 678.466 72.6 678.266 72.216C678.066 71.824 677.786 71.524 677.426 71.316C677.066 71.108 676.63 71.004 676.118 71.004C675.414 71.004 674.814 71.22 674.318 71.652C673.822 72.084 673.534 72.732 673.454 73.596ZM694.109 81.288C692.773 81.288 691.713 80.928 690.929 80.208C690.153 79.48 689.765 78.496 689.765 77.256C689.765 76.456 689.965 75.756 690.365 75.156C690.773 74.548 691.337 74.08 692.057 73.752C692.785 73.416 693.633 73.248 694.601 73.248C695.137 73.248 695.653 73.3 696.149 73.404C696.653 73.5 697.093 73.64 697.469 73.824V73.056C697.469 72.368 697.273 71.852 696.881 71.508C696.497 71.156 695.929 70.98 695.177 70.98C694.577 70.98 693.961 71.088 693.329 71.304C692.697 71.52 692.057 71.84 691.409 72.264L690.509 69.9C691.213 69.436 691.997 69.08 692.861 68.832C693.725 68.576 694.597 68.448 695.477 68.448C697.125 68.448 698.357 68.84 699.173 69.624C699.989 70.4 700.397 71.56 700.397 73.104V81H697.469V80.016C697.053 80.432 696.557 80.748 695.981 80.964C695.413 81.18 694.789 81.288 694.109 81.288ZM694.805 78.756C695.301 78.756 695.777 78.66 696.233 78.468C696.697 78.268 697.109 77.988 697.469 77.628V76.176C697.125 76.008 696.741 75.88 696.317 75.792C695.901 75.696 695.485 75.648 695.069 75.648C694.325 75.648 693.737 75.792 693.305 76.08C692.881 76.36 692.669 76.752 692.669 77.256C692.669 77.728 692.857 78.096 693.233 78.36C693.609 78.624 694.133 78.756 694.805 78.756ZM708.822 81.288C707.694 81.288 706.718 81.028 705.894 80.508C705.07 79.988 704.434 79.252 703.986 78.3C703.538 77.34 703.314 76.2 703.314 74.88C703.314 73.56 703.538 72.42 703.986 71.46C704.442 70.5 705.086 69.76 705.918 69.24C706.75 68.712 707.73 68.448 708.858 68.448C710.13 68.448 711.186 68.744 712.026 69.336C712.874 69.92 713.486 70.788 713.862 71.94L711.018 72.9C710.826 72.388 710.546 71.996 710.178 71.724C709.81 71.444 709.386 71.304 708.906 71.304C708.13 71.304 707.51 71.624 707.046 72.264C706.59 72.904 706.362 73.776 706.362 74.88C706.362 75.968 706.586 76.832 707.034 77.472C707.482 78.112 708.086 78.432 708.846 78.432C709.382 78.432 709.838 78.28 710.214 77.976C710.598 77.672 710.882 77.228 711.066 76.644L713.898 77.496C713.538 78.752 712.926 79.7 712.062 80.34C711.206 80.972 710.126 81.288 708.822 81.288ZM720.405 81.288C719.429 81.288 718.697 81.02 718.209 80.484C717.721 79.948 717.477 79.148 717.477 78.084V71.364H715.689V68.736H717.477V65.1L720.453 63.672V68.736H723.237V71.364H720.453V77.544C720.453 77.928 720.529 78.212 720.681 78.396C720.841 78.58 721.089 78.672 721.425 78.672C722.017 78.672 722.665 78.488 723.369 78.12L723.021 80.736C722.653 80.92 722.253 81.056 721.821 81.144C721.389 81.24 720.917 81.288 720.405 81.288ZM731.078 81.288C729.35 81.288 727.986 80.716 726.986 79.572C725.986 78.428 725.486 76.864 725.486 74.88C725.486 73.568 725.714 72.432 726.17 71.472C726.626 70.504 727.27 69.76 728.102 69.24C728.942 68.712 729.934 68.448 731.078 68.448C732.214 68.448 733.198 68.708 734.03 69.228C734.862 69.748 735.502 70.488 735.95 71.448C736.398 72.408 736.622 73.548 736.622 74.868C736.622 76.196 736.398 77.34 735.95 78.3C735.51 79.26 734.874 80 734.042 80.52C733.21 81.032 732.222 81.288 731.078 81.288ZM731.078 78.42C731.886 78.42 732.514 78.108 732.962 77.484C733.41 76.86 733.634 75.988 733.634 74.868C733.634 73.748 733.406 72.876 732.95 72.252C732.502 71.62 731.878 71.304 731.078 71.304C730.27 71.304 729.638 71.62 729.182 72.252C728.726 72.884 728.498 73.76 728.498 74.88C728.498 75.984 728.726 76.852 729.182 77.484C729.638 78.108 730.27 78.42 731.078 78.42ZM739.493 81V68.736H742.493V70.056C742.717 69.584 743.069 69.2 743.549 68.904C744.029 68.6 744.533 68.448 745.061 68.448C745.933 68.448 746.669 68.748 747.269 69.348L746.849 72.096C746.521 71.824 746.201 71.632 745.889 71.52C745.577 71.408 745.233 71.352 744.857 71.352C744.361 71.352 743.937 71.468 743.585 71.7C743.233 71.932 742.961 72.268 742.769 72.708C742.585 73.148 742.493 73.676 742.493 74.292V81H739.493ZM753.275 81.288C752.315 81.288 751.395 81.084 750.515 80.676C749.643 80.268 748.951 79.72 748.439 79.032L750.407 77.376C750.815 77.808 751.287 78.152 751.823 78.408C752.359 78.656 752.871 78.78 753.359 78.78C753.967 78.78 754.435 78.68 754.763 78.48C755.091 78.272 755.255 77.984 755.255 77.616C755.255 77.376 755.175 77.164 755.015 76.98C754.863 76.788 754.591 76.596 754.199 76.404C753.807 76.204 753.255 75.976 752.543 75.72C751.167 75.216 750.191 74.672 749.615 74.088C749.039 73.496 748.751 72.748 748.751 71.844C748.751 70.836 749.159 70.02 749.975 69.396C750.791 68.764 751.855 68.448 753.167 68.448C754.063 68.448 754.887 68.616 755.639 68.952C756.399 69.288 757.051 69.78 757.595 70.428L755.639 72.048C754.919 71.32 754.079 70.956 753.119 70.956C752.631 70.956 752.239 71.048 751.943 71.232C751.647 71.408 751.499 71.648 751.499 71.952C751.499 72.248 751.671 72.512 752.015 72.744C752.367 72.976 753.019 73.248 753.971 73.56C754.915 73.856 755.679 74.192 756.263 74.568C756.855 74.944 757.287 75.38 757.559 75.876C757.839 76.372 757.979 76.944 757.979 77.592C757.979 78.744 757.559 79.648 756.719 80.304C755.887 80.96 754.739 81.288 753.275 81.288Z" fill="white"/>
<path d="M880 64.4402C880 64.9925 880.676 65.383 881.155 65.1068L888.845 60.6667C889.324 60.3905 889.324 59.6095 888.845 59.3333L881.155 54.8932C880.676 54.617 880 55.0075 880 55.5598V64.4402ZM810 61H881V59H810V61Z" fill="#FC00FF"/>
<path d="M976.019 51.288C974.971 51.288 974.019 51.104 973.163 50.736C972.307 50.368 971.571 49.848 970.955 49.176C970.347 48.496 969.891 47.696 969.587 46.776L972.407 45.732C972.767 46.5 973.267 47.132 973.907 47.628C974.555 48.116 975.283 48.36 976.091 48.36C976.947 48.36 977.627 48.18 978.131 47.82C978.643 47.46 978.899 46.936 978.899 46.248C978.899 45.776 978.747 45.384 978.443 45.072C978.147 44.752 977.743 44.48 977.231 44.256C976.727 44.024 976.155 43.8 975.515 43.584C974.899 43.376 974.279 43.144 973.655 42.888C973.031 42.632 972.459 42.32 971.939 41.952C971.419 41.576 970.999 41.104 970.679 40.536C970.367 39.968 970.211 39.272 970.211 38.448C970.211 37.624 970.431 36.868 970.871 36.18C971.311 35.492 971.947 34.944 972.779 34.536C973.619 34.12 974.635 33.912 975.827 33.912C976.803 33.912 977.667 34.08 978.419 34.416C979.179 34.744 979.807 35.192 980.303 35.76C980.799 36.328 981.143 36.972 981.335 37.692L978.551 38.616C978.327 38.112 977.983 37.692 977.519 37.356C977.063 37.012 976.443 36.84 975.659 36.84C974.923 36.84 974.351 36.984 973.943 37.272C973.535 37.56 973.331 37.968 973.331 38.496C973.331 38.856 973.467 39.164 973.739 39.42C974.019 39.668 974.391 39.892 974.855 40.092C975.327 40.292 975.859 40.496 976.451 40.704C977.115 40.928 977.775 41.184 978.431 41.472C979.095 41.752 979.695 42.096 980.231 42.504C980.775 42.912 981.211 43.42 981.539 44.028C981.867 44.628 982.031 45.364 982.031 46.236C982.031 47.308 981.763 48.22 981.227 48.972C980.699 49.724 979.983 50.3 979.079 50.7C978.175 51.092 977.155 51.288 976.019 51.288ZM988.487 51.288C987.511 51.288 986.779 51.02 986.291 50.484C985.803 49.948 985.559 49.148 985.559 48.084V41.364H983.771V38.736H985.559V35.1L988.535 33.672V38.736H991.319V41.364H988.535V47.544C988.535 47.928 988.611 48.212 988.763 48.396C988.923 48.58 989.171 48.672 989.507 48.672C990.099 48.672 990.747 48.488 991.451 48.12L991.103 50.736C990.735 50.92 990.335 51.056 989.903 51.144C989.471 51.24 988.999 51.288 988.487 51.288ZM997.84 51.288C996.504 51.288 995.444 50.928 994.66 50.208C993.884 49.48 993.496 48.496 993.496 47.256C993.496 46.456 993.696 45.756 994.096 45.156C994.504 44.548 995.068 44.08 995.788 43.752C996.516 43.416 997.364 43.248 998.332 43.248C998.868 43.248 999.384 43.3 999.88 43.404C1000.38 43.5 1000.82 43.64 1001.2 43.824V43.056C1001.2 42.368 1001 41.852 1000.61 41.508C1000.23 41.156 999.66 40.98 998.908 40.98C998.308 40.98 997.692 41.088 997.06 41.304C996.428 41.52 995.788 41.84 995.14 42.264L994.24 39.9C994.944 39.436 995.728 39.08 996.592 38.832C997.456 38.576 998.328 38.448 999.208 38.448C1000.86 38.448 1002.09 38.84 1002.9 39.624C1003.72 40.4 1004.13 41.56 1004.13 43.104V51H1001.2V50.016C1000.78 50.432 1000.29 50.748 999.712 50.964C999.144 51.18 998.52 51.288 997.84 51.288ZM998.536 48.756C999.032 48.756 999.508 48.66 999.964 48.468C1000.43 48.268 1000.84 47.988 1001.2 47.628V46.176C1000.86 46.008 1000.47 45.88 1000.05 45.792C999.632 45.696 999.216 45.648 998.8 45.648C998.056 45.648 997.468 45.792 997.036 46.08C996.612 46.36 996.4 46.752 996.4 47.256C996.4 47.728 996.588 48.096 996.964 48.36C997.34 48.624 997.864 48.756 998.536 48.756ZM1007.72 51V38.736H1010.72V40.056C1010.94 39.584 1011.29 39.2 1011.77 38.904C1012.25 38.6 1012.76 38.448 1013.28 38.448C1014.16 38.448 1014.89 38.748 1015.49 39.348L1015.07 42.096C1014.74 41.824 1014.42 41.632 1014.11 41.52C1013.8 41.408 1013.46 41.352 1013.08 41.352C1012.58 41.352 1012.16 41.468 1011.81 41.7C1011.46 41.932 1011.18 42.268 1010.99 42.708C1010.81 43.148 1010.72 43.676 1010.72 44.292V51H1007.72ZM1021.39 51.288C1020.42 51.288 1019.69 51.02 1019.2 50.484C1018.71 49.948 1018.47 49.148 1018.47 48.084V41.364H1016.68V38.736H1018.47V35.1L1021.44 33.672V38.736H1024.23V41.364H1021.44V47.544C1021.44 47.928 1021.52 48.212 1021.67 48.396C1021.83 48.58 1022.08 48.672 1022.41 48.672C1023.01 48.672 1023.65 48.488 1024.36 48.12L1024.01 50.736C1023.64 50.92 1023.24 51.056 1022.81 51.144C1022.38 51.24 1021.91 51.288 1021.39 51.288ZM1036.82 51.288C1035.84 51.288 1035.11 51.02 1034.62 50.484C1034.13 49.948 1033.89 49.148 1033.89 48.084V41.364H1032.1V38.736H1033.89V35.1L1036.86 33.672V38.736H1039.65V41.364H1036.86V47.544C1036.86 47.928 1036.94 48.212 1037.09 48.396C1037.25 48.58 1037.5 48.672 1037.84 48.672C1038.43 48.672 1039.08 48.488 1039.78 48.12L1039.43 50.736C1039.06 50.92 1038.66 51.056 1038.23 51.144C1037.8 51.24 1037.33 51.288 1036.82 51.288ZM1046.17 51.288C1044.83 51.288 1043.77 50.928 1042.99 50.208C1042.21 49.48 1041.82 48.496 1041.82 47.256C1041.82 46.456 1042.02 45.756 1042.42 45.156C1042.83 44.548 1043.4 44.08 1044.12 43.752C1044.84 43.416 1045.69 43.248 1046.66 43.248C1047.2 43.248 1047.71 43.3 1048.21 43.404C1048.71 43.5 1049.15 43.64 1049.53 43.824V43.056C1049.53 42.368 1049.33 41.852 1048.94 41.508C1048.56 41.156 1047.99 40.98 1047.24 40.98C1046.64 40.98 1046.02 41.088 1045.39 41.304C1044.76 41.52 1044.12 41.84 1043.47 42.264L1042.57 39.9C1043.27 39.436 1044.06 39.08 1044.92 38.832C1045.78 38.576 1046.66 38.448 1047.54 38.448C1049.18 38.448 1050.42 38.84 1051.23 39.624C1052.05 40.4 1052.46 41.56 1052.46 43.104V51H1049.53V50.016C1049.11 50.432 1048.62 50.748 1048.04 50.964C1047.47 51.18 1046.85 51.288 1046.17 51.288ZM1046.86 48.756C1047.36 48.756 1047.84 48.66 1048.29 48.468C1048.76 48.268 1049.17 47.988 1049.53 47.628V46.176C1049.18 46.008 1048.8 45.88 1048.38 45.792C1047.96 45.696 1047.54 45.648 1047.13 45.648C1046.38 45.648 1045.8 45.792 1045.36 46.08C1044.94 46.36 1044.73 46.752 1044.73 47.256C1044.73 47.728 1044.92 48.096 1045.29 48.36C1045.67 48.624 1046.19 48.756 1046.86 48.756ZM1056.04 51V38.736H1059.04V40.056C1059.27 39.584 1059.62 39.2 1060.1 38.904C1060.58 38.6 1061.08 38.448 1061.61 38.448C1062.48 38.448 1063.22 38.748 1063.82 39.348L1063.4 42.096C1063.07 41.824 1062.75 41.632 1062.44 41.52C1062.13 41.408 1061.78 41.352 1061.41 41.352C1060.91 41.352 1060.49 41.468 1060.14 41.7C1059.78 41.932 1059.51 42.268 1059.32 42.708C1059.14 43.148 1059.04 43.676 1059.04 44.292V51H1056.04ZM1069.73 56.112L1068.07 53.604C1069.24 53.516 1070.14 53.384 1070.78 53.208C1071.43 53.032 1071.88 52.78 1072.14 52.452C1072.4 52.124 1072.52 51.696 1072.52 51.168V50.28C1071.9 50.952 1071.02 51.288 1069.88 51.288C1068.82 51.288 1067.9 51.032 1067.14 50.52C1066.37 50 1065.78 49.26 1065.36 48.3C1064.95 47.332 1064.75 46.184 1064.75 44.856C1064.75 43.56 1064.96 42.432 1065.38 41.472C1065.82 40.512 1066.42 39.768 1067.18 39.24C1067.96 38.712 1068.87 38.448 1069.91 38.448C1070.45 38.448 1070.95 38.532 1071.4 38.7C1071.85 38.868 1072.23 39.112 1072.52 39.432V38.736H1075.51V49.896C1075.51 50.984 1075.41 51.904 1075.21 52.656C1075.01 53.408 1074.68 54.024 1074.23 54.504C1073.78 54.984 1073.19 55.348 1072.45 55.596C1071.72 55.852 1070.81 56.024 1069.73 56.112ZM1070.38 48.42C1070.8 48.42 1071.2 48.324 1071.56 48.132C1071.94 47.932 1072.26 47.664 1072.52 47.328V42.384C1072.3 42.072 1071.99 41.816 1071.6 41.616C1071.21 41.408 1070.81 41.304 1070.41 41.304C1069.55 41.304 1068.89 41.608 1068.43 42.216C1067.98 42.816 1067.76 43.696 1067.76 44.856C1067.76 45.608 1067.86 46.252 1068.06 46.788C1068.27 47.316 1068.57 47.72 1068.96 48C1069.35 48.28 1069.82 48.42 1070.38 48.42ZM1084.06 51.288C1082.89 51.288 1081.87 51.024 1081.02 50.496C1080.17 49.968 1079.51 49.224 1079.05 48.264C1078.59 47.296 1078.36 46.16 1078.36 44.856C1078.36 43.536 1078.6 42.396 1079.06 41.436C1079.53 40.476 1080.19 39.74 1081.04 39.228C1081.9 38.708 1082.9 38.448 1084.06 38.448C1085.06 38.448 1085.96 38.656 1086.76 39.072C1087.57 39.488 1088.22 40.128 1088.7 40.992C1089.18 41.848 1089.42 42.94 1089.42 44.268C1089.42 44.476 1089.41 44.732 1089.39 45.036C1089.38 45.332 1089.36 45.632 1089.33 45.936H1081.33C1081.36 46.496 1081.49 46.988 1081.71 47.412C1081.94 47.828 1082.26 48.152 1082.66 48.384C1083.06 48.616 1083.53 48.732 1084.08 48.732C1084.66 48.732 1085.17 48.636 1085.6 48.444C1086.03 48.244 1086.44 47.928 1086.82 47.496L1088.55 49.284C1088.02 49.884 1087.39 50.368 1086.64 50.736C1085.9 51.104 1085.04 51.288 1084.06 51.288ZM1081.34 43.596H1086.51C1086.47 43.06 1086.35 42.6 1086.15 42.216C1085.95 41.824 1085.67 41.524 1085.31 41.316C1084.95 41.108 1084.52 41.004 1084 41.004C1083.3 41.004 1082.7 41.22 1082.2 41.652C1081.71 42.084 1081.42 42.732 1081.34 43.596ZM1095.83 51.288C1094.85 51.288 1094.12 51.02 1093.63 50.484C1093.15 49.948 1092.9 49.148 1092.9 48.084V41.364H1091.11V38.736H1092.9V35.1L1095.88 33.672V38.736H1098.66V41.364H1095.88V47.544C1095.88 47.928 1095.95 48.212 1096.11 48.396C1096.27 48.58 1096.51 48.672 1096.85 48.672C1097.44 48.672 1098.09 48.488 1098.79 48.12L1098.45 50.736C1098.08 50.92 1097.68 51.056 1097.25 51.144C1096.81 51.24 1096.34 51.288 1095.83 51.288ZM1101.23 51V38.736H1104.23V51H1101.23ZM1102.73 37.2C1102.25 37.2 1101.84 37.028 1101.48 36.684C1101.14 36.332 1100.97 35.916 1100.97 35.436C1100.97 34.956 1101.14 34.548 1101.48 34.212C1101.83 33.868 1102.24 33.696 1102.73 33.696C1103.24 33.696 1103.66 33.864 1103.99 34.2C1104.33 34.536 1104.5 34.948 1104.5 35.436C1104.5 35.924 1104.32 36.34 1103.98 36.684C1103.64 37.028 1103.23 37.2 1102.73 37.2ZM1108 51V38.736H1111V39.912C1111.4 39.424 1111.86 39.06 1112.41 38.82C1112.96 38.572 1113.59 38.448 1114.29 38.448C1115.66 38.448 1116.72 38.872 1117.46 39.72C1118.2 40.56 1118.58 41.772 1118.58 43.356V51H1115.59V44.28C1115.59 43.248 1115.41 42.496 1115.05 42.024C1114.7 41.544 1114.14 41.304 1113.39 41.304C1112.58 41.304 1111.97 41.544 1111.58 42.024C1111.2 42.496 1111 43.232 1111 44.232V51H1108ZM1126.66 56.112L1125 53.604C1126.17 53.516 1127.07 53.384 1127.71 53.208C1128.36 53.032 1128.81 52.78 1129.07 52.452C1129.33 52.124 1129.45 51.696 1129.45 51.168V50.28C1128.83 50.952 1127.95 51.288 1126.81 51.288C1125.75 51.288 1124.83 51.032 1124.07 50.52C1123.3 50 1122.71 49.26 1122.29 48.3C1121.88 47.332 1121.68 46.184 1121.68 44.856C1121.68 43.56 1121.89 42.432 1122.31 41.472C1122.75 40.512 1123.35 39.768 1124.11 39.24C1124.89 38.712 1125.8 38.448 1126.84 38.448C1127.38 38.448 1127.88 38.532 1128.33 38.7C1128.78 38.868 1129.16 39.112 1129.45 39.432V38.736H1132.44V49.896C1132.44 50.984 1132.34 51.904 1132.14 52.656C1131.94 53.408 1131.61 54.024 1131.16 54.504C1130.71 54.984 1130.12 55.348 1129.38 55.596C1128.65 55.852 1127.74 56.024 1126.66 56.112ZM1127.31 48.42C1127.73 48.42 1128.13 48.324 1128.49 48.132C1128.87 47.932 1129.19 47.664 1129.45 47.328V42.384C1129.23 42.072 1128.92 41.816 1128.53 41.616C1128.14 41.408 1127.74 41.304 1127.34 41.304C1126.48 41.304 1125.82 41.608 1125.36 42.216C1124.91 42.816 1124.69 43.696 1124.69 44.856C1124.69 45.608 1124.79 46.252 1124.99 46.788C1125.2 47.316 1125.5 47.72 1125.89 48C1126.28 48.28 1126.75 48.42 1127.31 48.42ZM1143.71 55.656L1145.57 50.784L1140.98 38.736H1144.06L1146.74 45.912C1146.81 46.08 1146.88 46.264 1146.94 46.464C1147 46.664 1147.06 46.864 1147.12 47.064C1147.17 46.864 1147.22 46.668 1147.29 46.476C1147.36 46.276 1147.43 46.088 1147.5 45.912L1150.18 38.736H1153.26L1146.81 55.656H1143.71ZM1160.46 51.288C1158.73 51.288 1157.36 50.716 1156.36 49.572C1155.36 48.428 1154.86 46.864 1154.86 44.88C1154.86 43.568 1155.09 42.432 1155.55 41.472C1156 40.504 1156.65 39.76 1157.48 39.24C1158.32 38.712 1159.31 38.448 1160.46 38.448C1161.59 38.448 1162.58 38.708 1163.41 39.228C1164.24 39.748 1164.88 40.488 1165.33 41.448C1165.78 42.408 1166 43.548 1166 44.868C1166 46.196 1165.78 47.34 1165.33 48.3C1164.89 49.26 1164.25 50 1163.42 50.52C1162.59 51.032 1161.6 51.288 1160.46 51.288ZM1160.46 48.42C1161.26 48.42 1161.89 48.108 1162.34 47.484C1162.79 46.86 1163.01 45.988 1163.01 44.868C1163.01 43.748 1162.78 42.876 1162.33 42.252C1161.88 41.62 1161.26 41.304 1160.46 41.304C1159.65 41.304 1159.02 41.62 1158.56 42.252C1158.1 42.884 1157.88 43.76 1157.88 44.88C1157.88 45.984 1158.1 46.852 1158.56 47.484C1159.02 48.108 1159.65 48.42 1160.46 48.42ZM1173.29 51.288C1171.93 51.288 1170.87 50.864 1170.11 50.016C1169.36 49.16 1168.99 47.952 1168.99 46.392V38.736H1171.99V45.456C1171.99 46.488 1172.16 47.24 1172.51 47.712C1172.87 48.184 1173.42 48.42 1174.18 48.42C1175 48.42 1175.6 48.184 1175.98 47.712C1176.37 47.232 1176.57 46.496 1176.57 45.504V38.736H1179.56V51H1176.57V49.848C1176.19 50.328 1175.73 50.688 1175.18 50.928C1174.63 51.168 1174.01 51.288 1173.29 51.288ZM1183.33 51V38.736H1186.33V40.056C1186.56 39.584 1186.91 39.2 1187.39 38.904C1187.87 38.6 1188.37 38.448 1188.9 38.448C1189.77 38.448 1190.51 38.748 1191.11 39.348L1190.69 42.096C1190.36 41.824 1190.04 41.632 1189.73 41.52C1189.42 41.408 1189.07 41.352 1188.7 41.352C1188.2 41.352 1187.78 41.468 1187.42 41.7C1187.07 41.932 1186.8 42.268 1186.61 42.708C1186.42 43.148 1186.33 43.676 1186.33 44.292V51H1183.33ZM955.896 81V68.736H958.896V81H955.896ZM957.396 67.2C956.916 67.2 956.5 67.028 956.148 66.684C955.804 66.332 955.632 65.916 955.632 65.436C955.632 64.956 955.804 64.548 956.148 64.212C956.492 63.868 956.908 63.696 957.396 63.696C957.9 63.696 958.32 63.864 958.656 64.2C958.992 64.536 959.16 64.948 959.16 65.436C959.16 65.924 958.988 66.34 958.644 66.684C958.308 67.028 957.892 67.2 957.396 67.2ZM962.669 81V68.736H965.669V69.912C966.061 69.424 966.529 69.06 967.073 68.82C967.625 68.572 968.253 68.448 968.957 68.448C970.325 68.448 971.381 68.872 972.125 69.72C972.869 70.56 973.241 71.772 973.241 73.356V81H970.253V74.28C970.253 73.248 970.073 72.496 969.713 72.024C969.361 71.544 968.809 71.304 968.057 71.304C967.241 71.304 966.637 71.544 966.245 72.024C965.861 72.496 965.669 73.232 965.669 74.232V81H962.669ZM980.096 81.288C979.12 81.288 978.388 81.02 977.9 80.484C977.412 79.948 977.168 79.148 977.168 78.084V71.364H975.38V68.736H977.168V65.1L980.144 63.672V68.736H982.928V71.364H980.144V77.544C980.144 77.928 980.22 78.212 980.372 78.396C980.532 78.58 980.78 78.672 981.116 78.672C981.708 78.672 982.356 78.488 983.06 78.12L982.712 80.736C982.344 80.92 981.944 81.056 981.512 81.144C981.08 81.24 980.608 81.288 980.096 81.288ZM990.877 81.288C989.701 81.288 988.685 81.024 987.829 80.496C986.981 79.968 986.325 79.224 985.861 78.264C985.405 77.296 985.177 76.16 985.177 74.856C985.177 73.536 985.409 72.396 985.873 71.436C986.345 70.476 987.005 69.74 987.853 69.228C988.709 68.708 989.717 68.448 990.877 68.448C991.869 68.448 992.769 68.656 993.577 69.072C994.385 69.488 995.029 70.128 995.509 70.992C995.989 71.848 996.229 72.94 996.229 74.268C996.229 74.476 996.221 74.732 996.205 75.036C996.197 75.332 996.177 75.632 996.145 75.936H988.141C988.173 76.496 988.301 76.988 988.525 77.412C988.757 77.828 989.073 78.152 989.473 78.384C989.873 78.616 990.345 78.732 990.889 78.732C991.473 78.732 991.981 78.636 992.413 78.444C992.845 78.244 993.253 77.928 993.637 77.496L995.365 79.284C994.837 79.884 994.201 80.368 993.457 80.736C992.713 81.104 991.853 81.288 990.877 81.288ZM988.153 73.596H993.325C993.285 73.06 993.165 72.6 992.965 72.216C992.765 71.824 992.485 71.524 992.125 71.316C991.765 71.108 991.329 71.004 990.817 71.004C990.113 71.004 989.513 71.22 989.017 71.652C988.521 72.084 988.233 72.732 988.153 73.596ZM999.255 81V68.736H1002.25V70.056C1002.48 69.584 1002.83 69.2 1003.31 68.904C1003.79 68.6 1004.29 68.448 1004.82 68.448C1005.69 68.448 1006.43 68.748 1007.03 69.348L1006.61 72.096C1006.28 71.824 1005.96 71.632 1005.65 71.52C1005.34 71.408 1004.99 71.352 1004.62 71.352C1004.12 71.352 1003.7 71.468 1003.35 71.7C1002.99 71.932 1002.72 72.268 1002.53 72.708C1002.35 73.148 1002.25 73.676 1002.25 74.292V81H999.255ZM1008.93 81V68.736H1011.93V69.912C1012.33 69.424 1012.79 69.06 1013.34 68.82C1013.89 68.572 1014.52 68.448 1015.22 68.448C1016.59 68.448 1017.65 68.872 1018.39 69.72C1019.13 70.56 1019.51 71.772 1019.51 73.356V81H1016.52V74.28C1016.52 73.248 1016.34 72.496 1015.98 72.024C1015.63 71.544 1015.07 71.304 1014.32 71.304C1013.51 71.304 1012.9 71.544 1012.51 72.024C1012.13 72.496 1011.93 73.232 1011.93 74.232V81H1008.93ZM1026.79 81.288C1025.45 81.288 1024.39 80.928 1023.61 80.208C1022.83 79.48 1022.44 78.496 1022.44 77.256C1022.44 76.456 1022.64 75.756 1023.04 75.156C1023.45 74.548 1024.01 74.08 1024.73 73.752C1025.46 73.416 1026.31 73.248 1027.28 73.248C1027.81 73.248 1028.33 73.3 1028.83 73.404C1029.33 73.5 1029.77 73.64 1030.15 73.824V73.056C1030.15 72.368 1029.95 71.852 1029.56 71.508C1029.17 71.156 1028.61 70.98 1027.85 70.98C1027.25 70.98 1026.64 71.088 1026.01 71.304C1025.37 71.52 1024.73 71.84 1024.09 72.264L1023.19 69.9C1023.89 69.436 1024.67 69.08 1025.54 68.832C1026.4 68.576 1027.27 68.448 1028.15 68.448C1029.8 68.448 1031.03 68.84 1031.85 69.624C1032.67 70.4 1033.07 71.56 1033.07 73.104V81H1030.15V80.016C1029.73 80.432 1029.23 80.748 1028.66 80.964C1028.09 81.18 1027.47 81.288 1026.79 81.288ZM1027.48 78.756C1027.98 78.756 1028.45 78.66 1028.91 78.468C1029.37 78.268 1029.79 77.988 1030.15 77.628V76.176C1029.8 76.008 1029.42 75.88 1028.99 75.792C1028.58 75.696 1028.16 75.648 1027.75 75.648C1027 75.648 1026.41 75.792 1025.98 76.08C1025.56 76.36 1025.35 76.752 1025.35 77.256C1025.35 77.728 1025.53 78.096 1025.91 78.36C1026.29 78.624 1026.81 78.756 1027.48 78.756ZM1039.74 81.288C1038.77 81.288 1038.04 81.02 1037.55 80.484C1037.06 79.948 1036.82 79.148 1036.82 78.084V71.364H1035.03V68.736H1036.82V65.1L1039.79 63.672V68.736H1042.58V71.364H1039.79V77.544C1039.79 77.928 1039.87 78.212 1040.02 78.396C1040.18 78.58 1040.43 78.672 1040.76 78.672C1041.36 78.672 1042 78.488 1042.71 78.12L1042.36 80.736C1041.99 80.92 1041.59 81.056 1041.16 81.144C1040.73 81.24 1040.26 81.288 1039.74 81.288ZM1045.15 81V68.736H1048.15V81H1045.15ZM1046.65 67.2C1046.17 67.2 1045.75 67.028 1045.4 66.684C1045.05 66.332 1044.88 65.916 1044.88 65.436C1044.88 64.956 1045.05 64.548 1045.4 64.212C1045.74 63.868 1046.16 63.696 1046.65 63.696C1047.15 63.696 1047.57 63.864 1047.91 64.2C1048.24 64.536 1048.41 64.948 1048.41 65.436C1048.41 65.924 1048.24 66.34 1047.89 66.684C1047.56 67.028 1047.14 67.2 1046.65 67.2ZM1056.86 81.288C1055.13 81.288 1053.77 80.716 1052.77 79.572C1051.77 78.428 1051.27 76.864 1051.27 74.88C1051.27 73.568 1051.5 72.432 1051.95 71.472C1052.41 70.504 1053.05 69.76 1053.89 69.24C1054.73 68.712 1055.72 68.448 1056.86 68.448C1058 68.448 1058.98 68.708 1059.81 69.228C1060.65 69.748 1061.29 70.488 1061.73 71.448C1062.18 72.408 1062.41 73.548 1062.41 74.868C1062.41 76.196 1062.18 77.34 1061.73 78.3C1061.29 79.26 1060.66 80 1059.83 80.52C1058.99 81.032 1058.01 81.288 1056.86 81.288ZM1056.86 78.42C1057.67 78.42 1058.3 78.108 1058.75 77.484C1059.19 76.86 1059.42 75.988 1059.42 74.868C1059.42 73.748 1059.19 72.876 1058.73 72.252C1058.29 71.62 1057.66 71.304 1056.86 71.304C1056.05 71.304 1055.42 71.62 1054.97 72.252C1054.51 72.884 1054.28 73.76 1054.28 74.88C1054.28 75.984 1054.51 76.852 1054.97 77.484C1055.42 78.108 1056.05 78.42 1056.86 78.42ZM1065.28 81V68.736H1068.28V69.912C1068.67 69.424 1069.14 69.06 1069.68 68.82C1070.23 68.572 1070.86 68.448 1071.57 68.448C1072.93 68.448 1073.99 68.872 1074.73 69.72C1075.48 70.56 1075.85 71.772 1075.85 73.356V81H1072.86V74.28C1072.86 73.248 1072.68 72.496 1072.32 72.024C1071.97 71.544 1071.42 71.304 1070.67 71.304C1069.85 71.304 1069.25 71.544 1068.85 72.024C1068.47 72.496 1068.28 73.232 1068.28 74.232V81H1065.28ZM1083.13 81.288C1081.79 81.288 1080.73 80.928 1079.95 80.208C1079.17 79.48 1078.78 78.496 1078.78 77.256C1078.78 76.456 1078.98 75.756 1079.38 75.156C1079.79 74.548 1080.36 74.08 1081.08 73.752C1081.8 73.416 1082.65 73.248 1083.62 73.248C1084.16 73.248 1084.67 73.3 1085.17 73.404C1085.67 73.5 1086.11 73.64 1086.49 73.824V73.056C1086.49 72.368 1086.29 71.852 1085.9 71.508C1085.52 71.156 1084.95 70.98 1084.2 70.98C1083.6 70.98 1082.98 71.088 1082.35 71.304C1081.72 71.52 1081.08 71.84 1080.43 72.264L1079.53 69.9C1080.23 69.436 1081.02 69.08 1081.88 68.832C1082.74 68.576 1083.62 68.448 1084.5 68.448C1086.14 68.448 1087.38 68.84 1088.19 69.624C1089.01 70.4 1089.42 71.56 1089.42 73.104V81H1086.49V80.016C1086.07 80.432 1085.58 80.748 1085 80.964C1084.43 81.18 1083.81 81.288 1083.13 81.288ZM1083.82 78.756C1084.32 78.756 1084.8 78.66 1085.25 78.468C1085.72 78.268 1086.13 77.988 1086.49 77.628V76.176C1086.14 76.008 1085.76 75.88 1085.34 75.792C1084.92 75.696 1084.5 75.648 1084.09 75.648C1083.34 75.648 1082.76 75.792 1082.32 76.08C1081.9 76.36 1081.69 76.752 1081.69 77.256C1081.69 77.728 1081.88 78.096 1082.25 78.36C1082.63 78.624 1083.15 78.756 1083.82 78.756ZM1092.98 81V65.028L1095.98 63.672V81H1092.98ZM1109.47 81.288C1108.14 81.288 1107.08 80.928 1106.29 80.208C1105.52 79.48 1105.13 78.496 1105.13 77.256C1105.13 76.456 1105.33 75.756 1105.73 75.156C1106.14 74.548 1106.7 74.08 1107.42 73.752C1108.15 73.416 1109 73.248 1109.96 73.248C1110.5 73.248 1111.02 73.3 1111.51 73.404C1112.02 73.5 1112.46 73.64 1112.83 73.824V73.056C1112.83 72.368 1112.64 71.852 1112.24 71.508C1111.86 71.156 1111.29 70.98 1110.54 70.98C1109.94 70.98 1109.32 71.088 1108.69 71.304C1108.06 71.52 1107.42 71.84 1106.77 72.264L1105.87 69.9C1106.58 69.436 1107.36 69.08 1108.22 68.832C1109.09 68.576 1109.96 68.448 1110.84 68.448C1112.49 68.448 1113.72 68.84 1114.54 69.624C1115.35 70.4 1115.76 71.56 1115.76 73.104V81H1112.83V80.016C1112.42 80.432 1111.92 80.748 1111.34 80.964C1110.78 81.18 1110.15 81.288 1109.47 81.288ZM1110.17 78.756C1110.66 78.756 1111.14 78.66 1111.6 78.468C1112.06 78.268 1112.47 77.988 1112.83 77.628V76.176C1112.49 76.008 1112.1 75.88 1111.68 75.792C1111.26 75.696 1110.85 75.648 1110.43 75.648C1109.69 75.648 1109.1 75.792 1108.67 76.08C1108.24 76.36 1108.03 76.752 1108.03 77.256C1108.03 77.728 1108.22 78.096 1108.6 78.36C1108.97 78.624 1109.5 78.756 1110.17 78.756ZM1123.4 81.288C1122.03 81.288 1120.97 80.864 1120.22 80.016C1119.46 79.16 1119.09 77.952 1119.09 76.392V68.736H1122.09V75.456C1122.09 76.488 1122.26 77.24 1122.62 77.712C1122.97 78.184 1123.52 78.42 1124.28 78.42C1125.1 78.42 1125.7 78.184 1126.08 77.712C1126.48 77.232 1126.67 76.496 1126.67 75.504V68.736H1129.66V81H1126.67V79.848C1126.3 80.328 1125.83 80.688 1125.28 80.928C1124.74 81.168 1124.11 81.288 1123.4 81.288ZM1137.58 81.288C1136 81.288 1134.77 80.72 1133.87 79.584C1132.98 78.448 1132.53 76.872 1132.53 74.856C1132.53 73.576 1132.74 72.456 1133.16 71.496C1133.59 70.536 1134.18 69.788 1134.94 69.252C1135.71 68.716 1136.6 68.448 1137.62 68.448C1138.7 68.448 1139.6 68.848 1140.29 69.648V65.028L1143.28 63.672V81H1140.29V79.992C1139.7 80.856 1138.8 81.288 1137.58 81.288ZM1138.07 78.42C1138.58 78.42 1139.02 78.332 1139.38 78.156C1139.74 77.972 1140.04 77.7 1140.29 77.34V72.384C1140.04 72.048 1139.72 71.784 1139.32 71.592C1138.93 71.4 1138.51 71.304 1138.07 71.304C1137.26 71.304 1136.64 71.612 1136.2 72.228C1135.76 72.836 1135.54 73.712 1135.54 74.856C1135.54 75.608 1135.64 76.252 1135.84 76.788C1136.04 77.316 1136.33 77.72 1136.7 78C1137.08 78.28 1137.54 78.42 1138.07 78.42ZM1147.05 81V68.736H1150.05V81H1147.05ZM1148.55 67.2C1148.07 67.2 1147.66 67.028 1147.3 66.684C1146.96 66.332 1146.79 65.916 1146.79 65.436C1146.79 64.956 1146.96 64.548 1147.3 64.212C1147.65 63.868 1148.06 63.696 1148.55 63.696C1149.06 63.696 1149.48 63.864 1149.81 64.2C1150.15 64.536 1150.32 64.948 1150.32 65.436C1150.32 65.924 1150.14 66.34 1149.8 66.684C1149.46 67.028 1149.05 67.2 1148.55 67.2ZM1158.88 81.288C1157.7 81.288 1156.69 81.024 1155.83 80.496C1154.98 79.968 1154.33 79.224 1153.86 78.264C1153.41 77.296 1153.18 76.16 1153.18 74.856C1153.18 73.536 1153.41 72.396 1153.87 71.436C1154.35 70.476 1155.01 69.74 1155.85 69.228C1156.71 68.708 1157.72 68.448 1158.88 68.448C1159.87 68.448 1160.77 68.656 1161.58 69.072C1162.39 69.488 1163.03 70.128 1163.51 70.992C1163.99 71.848 1164.23 72.94 1164.23 74.268C1164.23 74.476 1164.22 74.732 1164.21 75.036C1164.2 75.332 1164.18 75.632 1164.15 75.936H1156.14C1156.17 76.496 1156.3 76.988 1156.53 77.412C1156.76 77.828 1157.07 78.152 1157.47 78.384C1157.87 78.616 1158.35 78.732 1158.89 78.732C1159.47 78.732 1159.98 78.636 1160.41 78.444C1160.85 78.244 1161.25 77.928 1161.64 77.496L1163.37 79.284C1162.84 79.884 1162.2 80.368 1161.46 80.736C1160.71 81.104 1159.85 81.288 1158.88 81.288ZM1156.15 73.596H1161.33C1161.29 73.06 1161.17 72.6 1160.97 72.216C1160.77 71.824 1160.49 71.524 1160.13 71.316C1159.77 71.108 1159.33 71.004 1158.82 71.004C1158.11 71.004 1157.51 71.22 1157.02 71.652C1156.52 72.084 1156.23 72.732 1156.15 73.596ZM1167.25 81V68.736H1170.25V69.912C1170.65 69.424 1171.11 69.06 1171.66 68.82C1172.21 68.572 1172.84 68.448 1173.54 68.448C1174.91 68.448 1175.97 68.872 1176.71 69.72C1177.45 70.56 1177.83 71.772 1177.83 73.356V81H1174.84V74.28C1174.84 73.248 1174.66 72.496 1174.3 72.024C1173.95 71.544 1173.39 71.304 1172.64 71.304C1171.83 71.304 1171.22 71.544 1170.83 72.024C1170.45 72.496 1170.25 73.232 1170.25 74.232V81H1167.25ZM1186.44 81.288C1185.31 81.288 1184.33 81.028 1183.51 80.508C1182.68 79.988 1182.05 79.252 1181.6 78.3C1181.15 77.34 1180.93 76.2 1180.93 74.88C1180.93 73.56 1181.15 72.42 1181.6 71.46C1182.06 70.5 1182.7 69.76 1183.53 69.24C1184.36 68.712 1185.34 68.448 1186.47 68.448C1187.74 68.448 1188.8 68.744 1189.64 69.336C1190.49 69.92 1191.1 70.788 1191.48 71.94L1188.63 72.9C1188.44 72.388 1188.16 71.996 1187.79 71.724C1187.42 71.444 1187 71.304 1186.52 71.304C1185.74 71.304 1185.12 71.624 1184.66 72.264C1184.2 72.904 1183.98 73.776 1183.98 74.88C1183.98 75.968 1184.2 76.832 1184.65 77.472C1185.1 78.112 1185.7 78.432 1186.46 78.432C1187 78.432 1187.45 78.28 1187.83 77.976C1188.21 77.672 1188.5 77.228 1188.68 76.644L1191.51 77.496C1191.15 78.752 1190.54 79.7 1189.68 80.34C1188.82 80.972 1187.74 81.288 1186.44 81.288ZM1199.56 81.288C1198.39 81.288 1197.37 81.024 1196.52 80.496C1195.67 79.968 1195.01 79.224 1194.55 78.264C1194.09 77.296 1193.86 76.16 1193.86 74.856C1193.86 73.536 1194.1 72.396 1194.56 71.436C1195.03 70.476 1195.69 69.74 1196.54 69.228C1197.4 68.708 1198.4 68.448 1199.56 68.448C1200.56 68.448 1201.46 68.656 1202.26 69.072C1203.07 69.488 1203.72 70.128 1204.2 70.992C1204.68 71.848 1204.92 72.94 1204.92 74.268C1204.92 74.476 1204.91 74.732 1204.89 75.036C1204.88 75.332 1204.86 75.632 1204.83 75.936H1196.83C1196.86 76.496 1196.99 76.988 1197.21 77.412C1197.44 77.828 1197.76 78.152 1198.16 78.384C1198.56 78.616 1199.03 78.732 1199.58 78.732C1200.16 78.732 1200.67 78.636 1201.1 78.444C1201.53 78.244 1201.94 77.928 1202.32 77.496L1204.05 79.284C1203.52 79.884 1202.89 80.368 1202.14 80.736C1201.4 81.104 1200.54 81.288 1199.56 81.288ZM1196.84 73.596H1202.01C1201.97 73.06 1201.85 72.6 1201.65 72.216C1201.45 71.824 1201.17 71.524 1200.81 71.316C1200.45 71.108 1200.02 71.004 1199.5 71.004C1198.8 71.004 1198.2 71.22 1197.7 71.652C1197.21 72.084 1196.92 72.732 1196.84 73.596Z" fill="white"/>
</svg>
